<?xml version="1.0" encoding="utf-8"?>
<!-- Generator: Adobe Illustrator 22.0.0, SVG Export Plug-In . SVG Version: 6.00 Build 0)  -->
<svg version="1.1" id="Layer_1" xmlns="http://www.w3.org/2000/svg" xmlns:xlink="http://www.w3.org/1999/xlink" x="0px" y="0px"
	 viewBox="0 0 209.6 123.5" style="enable-background:new 0 0 209.6 123.5;" xml:space="preserve">
<style type="text/css">
	.st0{opacity:0.42;}
	.st1{opacity:0.3;clip-path:url(#SVGID_2_);}
	.st2{clip-path:url(#SVGID_4_);}
	.st3{clip-path:url(#SVGID_6_);fill:url(#SVGID_7_);}
	.st4{clip-path:url(#SVGID_9_);}
	.st5{clip-path:url(#SVGID_11_);fill:url(#SVGID_12_);}
	.st6{clip-path:url(#SVGID_14_);}
	.st7{clip-path:url(#SVGID_16_);fill:url(#SVGID_17_);}
	.st8{clip-path:url(#SVGID_19_);}
	.st9{clip-path:url(#SVGID_21_);fill:url(#SVGID_22_);}
	.st10{clip-path:url(#SVGID_24_);}
	.st11{clip-path:url(#SVGID_26_);fill:url(#SVGID_27_);}
	.st12{clip-path:url(#SVGID_29_);}
	.st13{clip-path:url(#SVGID_31_);fill:url(#SVGID_32_);}
	.st14{clip-path:url(#SVGID_34_);}
	.st15{clip-path:url(#SVGID_36_);fill:url(#SVGID_37_);}
	.st16{clip-path:url(#SVGID_39_);}
	.st17{clip-path:url(#SVGID_41_);fill:url(#SVGID_42_);}
	.st18{clip-path:url(#SVGID_44_);}
	.st19{clip-path:url(#SVGID_46_);fill:url(#SVGID_47_);}
	.st20{clip-path:url(#SVGID_49_);}
	.st21{clip-path:url(#SVGID_51_);fill:url(#SVGID_52_);}
	.st22{clip-path:url(#SVGID_54_);}
	.st23{clip-path:url(#SVGID_56_);fill:url(#SVGID_57_);}
	.st24{clip-path:url(#SVGID_59_);}
	.st25{clip-path:url(#SVGID_61_);fill:url(#SVGID_62_);}
	.st26{clip-path:url(#SVGID_64_);}
	.st27{clip-path:url(#SVGID_66_);fill:url(#SVGID_67_);}
	.st28{clip-path:url(#SVGID_69_);}
	.st29{clip-path:url(#SVGID_71_);fill:url(#SVGID_72_);}
	.st30{clip-path:url(#SVGID_74_);}
	.st31{clip-path:url(#SVGID_76_);fill:url(#SVGID_77_);}
	.st32{clip-path:url(#SVGID_79_);}
	.st33{clip-path:url(#SVGID_81_);fill:url(#SVGID_82_);}
	.st34{clip-path:url(#SVGID_84_);fill:url(#SVGID_85_);}
	.st35{clip-path:url(#SVGID_87_);fill:url(#SVGID_88_);}
	.st36{clip-path:url(#SVGID_90_);fill:url(#SVGID_91_);}
	.st37{clip-path:url(#SVGID_93_);fill:url(#SVGID_94_);}
	.st38{clip-path:url(#SVGID_96_);fill:url(#SVGID_97_);}
	.st39{clip-path:url(#SVGID_99_);fill:url(#SVGID_100_);}
	.st40{clip-path:url(#SVGID_102_);fill:url(#SVGID_103_);}
	.st41{clip-path:url(#SVGID_105_);fill:url(#SVGID_106_);}
	.st42{clip-path:url(#SVGID_108_);fill:url(#SVGID_109_);}
	.st43{clip-path:url(#SVGID_111_);fill:url(#SVGID_112_);}
	.st44{clip-path:url(#SVGID_114_);fill:url(#SVGID_115_);}
	.st45{clip-path:url(#SVGID_118_);fill:url(#SVGID_119_);}
	.st46{clip-path:url(#SVGID_121_);fill:url(#SVGID_122_);}
	.st47{clip-path:url(#SVGID_124_);fill:url(#SVGID_125_);}
	.st48{clip-path:url(#SVGID_127_);fill:url(#SVGID_128_);}
	.st49{clip-path:url(#SVGID_130_);fill:url(#SVGID_131_);}
	.st50{clip-path:url(#SVGID_133_);fill:url(#SVGID_134_);}
	.st51{clip-path:url(#SVGID_136_);fill:url(#SVGID_137_);}
	.st52{clip-path:url(#SVGID_139_);fill:url(#SVGID_140_);}
	.st53{clip-path:url(#SVGID_142_);fill:url(#SVGID_143_);}
	.st54{clip-path:url(#SVGID_146_);fill:url(#SVGID_147_);}
	.st55{clip-path:url(#SVGID_150_);fill:url(#SVGID_151_);}
	.st56{clip-path:url(#SVGID_153_);fill:url(#SVGID_154_);}
	.st57{fill:none;}
	.st58{clip-path:url(#SVGID_157_);fill:url(#SVGID_158_);}
	.st59{clip-path:url(#SVGID_161_);fill:url(#SVGID_162_);}
	.st60{fill:url(#SVGID_163_);stroke:#10A8C1;stroke-width:1.5;stroke-miterlimit:10;}
	.st61{fill:#FFFFFF;stroke:#10A8C1;stroke-width:1.5;stroke-miterlimit:10;}
	.st62{fill:url(#SVGID_164_);stroke:#10A8C1;stroke-width:1.5;stroke-miterlimit:10;}
	.st63{fill:#10A8C1;}
	.st64{fill:url(#SVGID_165_);stroke:#10A8C1;stroke-width:1.5;stroke-miterlimit:10;}
	.st65{clip-path:url(#SVGID_168_);fill:url(#SVGID_169_);}
	.st66{fill:#FFFFFF;}
</style>
<g class="st0">
	<g>
		<defs>
			<rect id="SVGID_1_" width="209.6" height="105.8"/>
		</defs>
		<clipPath id="SVGID_2_">
			<use xlink:href="#SVGID_1_"  style="overflow:visible;"/>
		</clipPath>
		<g class="st1">
			<g>
				<defs>
					<rect id="SVGID_3_" x="19.8" y="16.2" width="173.1" height="89.6"/>
				</defs>
				<clipPath id="SVGID_4_">
					<use xlink:href="#SVGID_3_"  style="overflow:visible;"/>
				</clipPath>
				<g class="st2">
					<defs>
						<path id="SVGID_5_" d="M192.8,105.8c0-12.4-2.6-24.1-7.4-34.7c1.7-3.5,2.7-7.5,2.7-11.7c0-14.9-12.1-26.9-26.9-26.9
							c-2.8,0-5.5,0.4-8,1.2c-13.2-8.4-29-13.3-45.8-13.3c-2.1,0-4.2,0.1-6.2,0.2c-3.7-2.8-8.3-4.4-13.2-4.4
							c-9.4,0-17.4,5.9-20.6,14.1c-6.5,3.4-12.5,7.7-17.8,12.6c-1.7-0.4-3.5-0.6-5.4-0.6c-13.5,0-24.4,10.9-24.4,24.4
							c0,5.9,2.1,11.3,5.5,15.5c-2.2,7.5-3.3,15.4-3.3,23.6H192.8z"/>
					</defs>
					<clipPath id="SVGID_6_">
						<use xlink:href="#SVGID_5_"  style="overflow:visible;"/>
					</clipPath>
					
						<linearGradient id="SVGID_7_" gradientUnits="userSpaceOnUse" x1="3.164198e-04" y1="107.2584" x2="1.0003" y2="107.2584" gradientTransform="matrix(173.0602 0 0 -173.0602 19.6972 18623.1309)">
						<stop  offset="0" style="stop-color:#7CD1FF"/>
						<stop  offset="0.99" style="stop-color:#0CC2ED"/>
					</linearGradient>
					<rect x="19.8" y="16.2" class="st3" width="173.1" height="89.6"/>
				</g>
			</g>
		</g>
		<g class="st1">
			<g>
				<defs>
					<rect id="SVGID_8_" x="45.3" y="43.7" width="124.1" height="62.1"/>
				</defs>
				<clipPath id="SVGID_9_">
					<use xlink:href="#SVGID_8_"  style="overflow:visible;"/>
				</clipPath>
				<g class="st4">
					<defs>
						<path id="SVGID_10_" d="M169.4,105.8c0-34.3-27.8-62.1-62.1-62.1c-34.3,0-62.1,27.8-62.1,62.1H169.4z"/>
					</defs>
					<clipPath id="SVGID_11_">
						<use xlink:href="#SVGID_10_"  style="overflow:visible;"/>
					</clipPath>
					
						<linearGradient id="SVGID_12_" gradientUnits="userSpaceOnUse" x1="1.446914e-04" y1="107.2591" x2="1.0001" y2="107.2591" gradientTransform="matrix(124.1014 0 0 -124.1014 45.3238 13385.7549)">
						<stop  offset="0" style="stop-color:#7CD1FF"/>
						<stop  offset="0.99" style="stop-color:#0CC2ED"/>
					</linearGradient>
					<rect x="45.3" y="43.7" class="st5" width="124.1" height="62.1"/>
				</g>
			</g>
		</g>
		<g class="st1">
			<g>
				<defs>
					<rect id="SVGID_13_" x="191.7" y="68.3" width="9.7" height="9.7"/>
				</defs>
				<clipPath id="SVGID_14_">
					<use xlink:href="#SVGID_13_"  style="overflow:visible;"/>
				</clipPath>
				<g class="st6">
					<defs>
						<path id="SVGID_15_" d="M201.5,73.2c0,2.7-2.2,4.9-4.9,4.9c-2.7,0-4.9-2.2-4.9-4.9c0-2.7,2.2-4.9,4.9-4.9
							C199.3,68.3,201.5,70.5,201.5,73.2"/>
					</defs>
					<clipPath id="SVGID_16_">
						<use xlink:href="#SVGID_15_"  style="overflow:visible;"/>
					</clipPath>
					
						<linearGradient id="SVGID_17_" gradientUnits="userSpaceOnUse" x1="-5.967027e-04" y1="107.2573" x2="0.9993" y2="107.2573" gradientTransform="matrix(9.7282 0 0 -9.7282 191.7285 1116.5959)">
						<stop  offset="0" style="stop-color:#7CD1FF"/>
						<stop  offset="0.99" style="stop-color:#0CC2ED"/>
					</linearGradient>
					<rect x="191.7" y="68.3" class="st7" width="9.7" height="9.7"/>
				</g>
			</g>
		</g>
		<g class="st1">
			<g>
				<defs>
					<rect id="SVGID_18_" x="118.6" y="5" width="15" height="15"/>
				</defs>
				<clipPath id="SVGID_19_">
					<use xlink:href="#SVGID_18_"  style="overflow:visible;"/>
				</clipPath>
				<g class="st8">
					<defs>
						<path id="SVGID_20_" d="M133.5,12.5c0,4.1-3.4,7.5-7.5,7.5c-4.1,0-7.5-3.4-7.5-7.5c0-4.1,3.4-7.5,7.5-7.5
							C130.2,5,133.5,8.4,133.5,12.5"/>
					</defs>
					<clipPath id="SVGID_21_">
						<use xlink:href="#SVGID_20_"  style="overflow:visible;"/>
					</clipPath>
					
						<linearGradient id="SVGID_22_" gradientUnits="userSpaceOnUse" x1="-3.337844e-04" y1="107.2575" x2="0.9997" y2="107.2575" gradientTransform="matrix(14.9887 0 0 -14.9887 118.5587 1620.1438)">
						<stop  offset="0" style="stop-color:#7CD1FF"/>
						<stop  offset="0.99" style="stop-color:#0CC2ED"/>
					</linearGradient>
					<rect x="118.6" y="5" class="st9" width="15" height="15"/>
				</g>
			</g>
		</g>
		<g class="st1">
			<g>
				<defs>
					<rect id="SVGID_23_" x="51.2" y="27.6" width="6.4" height="6.4"/>
				</defs>
				<clipPath id="SVGID_24_">
					<use xlink:href="#SVGID_23_"  style="overflow:visible;"/>
				</clipPath>
				<g class="st10">
					<defs>
						<path id="SVGID_25_" d="M57.6,30.8c0,1.8-1.4,3.2-3.2,3.2c-1.8,0-3.2-1.4-3.2-3.2c0-1.8,1.4-3.2,3.2-3.2
							C56.2,27.6,57.6,29,57.6,30.8"/>
					</defs>
					<clipPath id="SVGID_26_">
						<use xlink:href="#SVGID_25_"  style="overflow:visible;"/>
					</clipPath>
					
						<linearGradient id="SVGID_27_" gradientUnits="userSpaceOnUse" x1="-1.003084e-02" y1="107.2473" x2="0.9899" y2="107.2473" gradientTransform="matrix(6.4202 0 0 -6.4202 51.2534 719.3526)">
						<stop  offset="0" style="stop-color:#7CD1FF"/>
						<stop  offset="0.99" style="stop-color:#0CC2ED"/>
					</linearGradient>
					<rect x="51.2" y="27.6" class="st11" width="6.4" height="6.4"/>
				</g>
			</g>
		</g>
		<g class="st1">
			<g>
				<defs>
					<rect id="SVGID_28_" x="152.3" y="21.7" width="6.4" height="6.4"/>
				</defs>
				<clipPath id="SVGID_29_">
					<use xlink:href="#SVGID_28_"  style="overflow:visible;"/>
				</clipPath>
				<g class="st12">
					<defs>
						<path id="SVGID_30_" d="M158.7,24.9c0,1.8-1.4,3.2-3.2,3.2c-1.8,0-3.2-1.4-3.2-3.2c0-1.8,1.4-3.2,3.2-3.2
							C157.3,21.7,158.7,23.1,158.7,24.9"/>
					</defs>
					<clipPath id="SVGID_31_">
						<use xlink:href="#SVGID_30_"  style="overflow:visible;"/>
					</clipPath>
					
						<linearGradient id="SVGID_32_" gradientUnits="userSpaceOnUse" x1="2.330383e-04" y1="107.2574" x2="1.0002" y2="107.2574" gradientTransform="matrix(6.4202 0 0 -6.4202 152.3003 713.5362)">
						<stop  offset="0" style="stop-color:#7CD1FF"/>
						<stop  offset="0.99" style="stop-color:#0CC2ED"/>
					</linearGradient>
					<rect x="152.3" y="21.7" class="st13" width="6.4" height="6.4"/>
				</g>
			</g>
		</g>
		<g class="st1">
			<g>
				<defs>
					<rect id="SVGID_33_" x="81.5" width="6.4" height="6.4"/>
				</defs>
				<clipPath id="SVGID_34_">
					<use xlink:href="#SVGID_33_"  style="overflow:visible;"/>
				</clipPath>
				<g class="st14">
					<defs>
						<path id="SVGID_35_" d="M87.9,3.2c0,1.8-1.4,3.2-3.2,3.2c-1.8,0-3.2-1.4-3.2-3.2c0-1.8,1.4-3.2,3.2-3.2
							C86.5,0,87.9,1.4,87.9,3.2"/>
					</defs>
					<clipPath id="SVGID_36_">
						<use xlink:href="#SVGID_35_"  style="overflow:visible;"/>
					</clipPath>
					
						<linearGradient id="SVGID_37_" gradientUnits="userSpaceOnUse" x1="3.893960e-04" y1="107.2576" x2="1.0004" y2="107.2576" gradientTransform="matrix(6.4202 0 0 -6.4202 81.5073 691.8253)">
						<stop  offset="0" style="stop-color:#7CD1FF"/>
						<stop  offset="0.99" style="stop-color:#0CC2ED"/>
					</linearGradient>
					<rect x="81.5" class="st15" width="6.4" height="6.4"/>
				</g>
			</g>
		</g>
		<g class="st1">
			<g>
				<defs>
					<rect id="SVGID_38_" x="193.5" y="83.6" width="2.6" height="2.6"/>
				</defs>
				<clipPath id="SVGID_39_">
					<use xlink:href="#SVGID_38_"  style="overflow:visible;"/>
				</clipPath>
				<g class="st16">
					<defs>
						<path id="SVGID_40_" d="M196.1,84.9c0,0.7-0.6,1.3-1.3,1.3c-0.7,0-1.3-0.6-1.3-1.3c0-0.7,0.6-1.3,1.3-1.3
							C195.6,83.6,196.1,84.2,196.1,84.9"/>
					</defs>
					<clipPath id="SVGID_41_">
						<use xlink:href="#SVGID_40_"  style="overflow:visible;"/>
					</clipPath>
					
						<linearGradient id="SVGID_42_" gradientUnits="userSpaceOnUse" x1="-1.536229e-04" y1="107.2582" x2="1.0003" y2="107.2582" gradientTransform="matrix(2.6356 0 0 -2.6356 193.5111 367.6335)">
						<stop  offset="0" style="stop-color:#7CD1FF"/>
						<stop  offset="0.99" style="stop-color:#0CC2ED"/>
					</linearGradient>
					<rect x="193.5" y="83.6" class="st17" width="2.6" height="2.6"/>
				</g>
			</g>
		</g>
		<g class="st1">
			<g>
				<defs>
					<rect id="SVGID_43_" x="153" y="1.2" width="2" height="2"/>
				</defs>
				<clipPath id="SVGID_44_">
					<use xlink:href="#SVGID_43_"  style="overflow:visible;"/>
				</clipPath>
				<g class="st18">
					<defs>
						<path id="SVGID_45_" d="M155,2.2c0,0.5-0.4,1-1,1c-0.5,0-1-0.4-1-1c0-0.5,0.4-1,1-1C154.5,1.2,155,1.7,155,2.2"/>
					</defs>
					<clipPath id="SVGID_46_">
						<use xlink:href="#SVGID_45_"  style="overflow:visible;"/>
					</clipPath>
					
						<linearGradient id="SVGID_47_" gradientUnits="userSpaceOnUse" x1="-4.062798e-04" y1="107.2577" x2="0.9995" y2="107.2577" gradientTransform="matrix(1.9786 0 0 -1.9786 153.0086 214.4406)">
						<stop  offset="0" style="stop-color:#7CD1FF"/>
						<stop  offset="0.99" style="stop-color:#0CC2ED"/>
					</linearGradient>
					<rect x="153" y="1.2" class="st19" width="2" height="2"/>
				</g>
			</g>
		</g>
		<g class="st1">
			<g>
				<defs>
					<rect id="SVGID_48_" x="54.4" y="5.9" width="2.6" height="2.6"/>
				</defs>
				<clipPath id="SVGID_49_">
					<use xlink:href="#SVGID_48_"  style="overflow:visible;"/>
				</clipPath>
				<g class="st20">
					<defs>
						<path id="SVGID_50_" d="M57,7.1c0,0.7-0.6,1.3-1.3,1.3c-0.7,0-1.3-0.6-1.3-1.3c0-0.7,0.6-1.3,1.3-1.3C56.4,5.9,57,6.4,57,7.1"
							/>
					</defs>
					<clipPath id="SVGID_51_">
						<use xlink:href="#SVGID_50_"  style="overflow:visible;"/>
					</clipPath>
					
						<linearGradient id="SVGID_52_" gradientUnits="userSpaceOnUse" x1="-1.553398e-04" y1="107.2574" x2="0.9999" y2="107.2574" gradientTransform="matrix(2.575 0 0 -2.575 54.3852 283.3372)">
						<stop  offset="0" style="stop-color:#7CD1FF"/>
						<stop  offset="0.99" style="stop-color:#0CC2ED"/>
					</linearGradient>
					<rect x="54.4" y="5.9" class="st21" width="2.6" height="2.6"/>
				</g>
			</g>
		</g>
		<g class="st1">
			<g>
				<defs>
					<rect id="SVGID_53_" y="34.2" width="3.4" height="3.4"/>
				</defs>
				<clipPath id="SVGID_54_">
					<use xlink:href="#SVGID_53_"  style="overflow:visible;"/>
				</clipPath>
				<g class="st22">
					<defs>
						<path id="SVGID_55_" d="M3.4,35.9c0,0.9-0.8,1.7-1.7,1.7c-0.9,0-1.7-0.8-1.7-1.7c0-0.9,0.8-1.7,1.7-1.7
							C2.7,34.2,3.4,35,3.4,35.9"/>
					</defs>
					<clipPath id="SVGID_56_">
						<use xlink:href="#SVGID_55_"  style="overflow:visible;"/>
					</clipPath>
					
						<linearGradient id="SVGID_57_" gradientUnits="userSpaceOnUse" x1="-5.838905e-05" y1="107.2576" x2="0.9998" y2="107.2576" gradientTransform="matrix(3.4253 0 0 -3.4253 2.000000e-04 403.2955)">
						<stop  offset="0" style="stop-color:#7CD1FF"/>
						<stop  offset="0.99" style="stop-color:#0CC2ED"/>
					</linearGradient>
					<rect y="34.2" class="st23" width="3.4" height="3.4"/>
				</g>
			</g>
		</g>
		<g class="st1">
			<g>
				<defs>
					<rect id="SVGID_58_" x="206.2" y="46.7" width="3.4" height="3.4"/>
				</defs>
				<clipPath id="SVGID_59_">
					<use xlink:href="#SVGID_58_"  style="overflow:visible;"/>
				</clipPath>
				<g class="st24">
					<defs>
						<path id="SVGID_60_" d="M209.6,48.5c0,0.9-0.8,1.7-1.7,1.7c-0.9,0-1.7-0.8-1.7-1.7c0-0.9,0.8-1.7,1.7-1.7
							C208.8,46.7,209.6,47.5,209.6,48.5"/>
					</defs>
					<clipPath id="SVGID_61_">
						<use xlink:href="#SVGID_60_"  style="overflow:visible;"/>
					</clipPath>
					
						<linearGradient id="SVGID_62_" gradientUnits="userSpaceOnUse" x1="-3.518549e-04" y1="107.2572" x2="0.9995" y2="107.2572" gradientTransform="matrix(3.4253 0 0 -3.4253 206.1819 415.8424)">
						<stop  offset="0" style="stop-color:#7CD1FF"/>
						<stop  offset="0.99" style="stop-color:#0CC2ED"/>
					</linearGradient>
					<rect x="206.2" y="46.7" class="st25" width="3.4" height="3.4"/>
				</g>
			</g>
		</g>
		<g class="st1">
			<g>
				<defs>
					<rect id="SVGID_63_" x="22" y="21.7" width="14.5" height="14.5"/>
				</defs>
				<clipPath id="SVGID_64_">
					<use xlink:href="#SVGID_63_"  style="overflow:visible;"/>
				</clipPath>
				<g class="st26">
					<defs>
						<path id="SVGID_65_" d="M36.5,29c0,4-3.3,7.3-7.3,7.3c-4,0-7.3-3.3-7.3-7.3c0-4,3.3-7.3,7.3-7.3C33.2,21.7,36.5,25,36.5,29"/>
					</defs>
					<clipPath id="SVGID_66_">
						<use xlink:href="#SVGID_65_"  style="overflow:visible;"/>
					</clipPath>
					
						<linearGradient id="SVGID_67_" gradientUnits="userSpaceOnUse" x1="3.442151e-05" y1="107.2578" x2="1" y2="107.2578" gradientTransform="matrix(14.5258 0 0 -14.5258 21.9673 1586.9796)">
						<stop  offset="0" style="stop-color:#7CD1FF"/>
						<stop  offset="0.99" style="stop-color:#0CC2ED"/>
					</linearGradient>
					<rect x="22" y="21.7" class="st27" width="14.5" height="14.5"/>
				</g>
			</g>
		</g>
		<g class="st1">
			<g>
				<defs>
					<rect id="SVGID_68_" x="6.1" y="80.2" width="3.4" height="3.4"/>
				</defs>
				<clipPath id="SVGID_69_">
					<use xlink:href="#SVGID_68_"  style="overflow:visible;"/>
				</clipPath>
				<g class="st28">
					<defs>
						<path id="SVGID_70_" d="M9.6,81.9c0,0.9-0.8,1.7-1.7,1.7c-0.9,0-1.7-0.8-1.7-1.7c0-0.9,0.8-1.7,1.7-1.7
							C8.8,80.2,9.6,81,9.6,81.9"/>
					</defs>
					<clipPath id="SVGID_71_">
						<use xlink:href="#SVGID_70_"  style="overflow:visible;"/>
					</clipPath>
					
						<linearGradient id="SVGID_72_" gradientUnits="userSpaceOnUse" x1="1.342987e-04" y1="107.2569" x2="0.9997" y2="107.2569" gradientTransform="matrix(3.4252 0 0 -3.4252 6.1387 449.3085)">
						<stop  offset="0" style="stop-color:#7CD1FF"/>
						<stop  offset="0.99" style="stop-color:#0CC2ED"/>
					</linearGradient>
					<rect x="6.1" y="80.2" class="st29" width="3.4" height="3.4"/>
				</g>
			</g>
		</g>
		<g class="st1">
			<g>
				<defs>
					<rect id="SVGID_73_" x="184.7" y="23.8" width="14.1" height="14.1"/>
				</defs>
				<clipPath id="SVGID_74_">
					<use xlink:href="#SVGID_73_"  style="overflow:visible;"/>
				</clipPath>
				<g class="st30">
					<defs>
						<path id="SVGID_75_" d="M198.8,30.8c0,3.9-3.2,7-7,7c-3.9,0-7-3.2-7-7c0-3.9,3.2-7,7-7C195.6,23.8,198.8,26.9,198.8,30.8"/>
					</defs>
					<clipPath id="SVGID_76_">
						<use xlink:href="#SVGID_75_"  style="overflow:visible;"/>
					</clipPath>
					
						<linearGradient id="SVGID_77_" gradientUnits="userSpaceOnUse" x1="1.559043e-04" y1="107.258" x2="1.0001" y2="107.258" gradientTransform="matrix(14.0813 0 0 -14.0813 184.6794 1541.1357)">
						<stop  offset="0" style="stop-color:#7CD1FF"/>
						<stop  offset="0.99" style="stop-color:#0CC2ED"/>
					</linearGradient>
					<rect x="184.7" y="23.8" class="st31" width="14.1" height="14.1"/>
				</g>
			</g>
		</g>
		<g class="st1">
			<g>
				<defs>
					<rect id="SVGID_78_" x="0.9" y="55.7" width="13.8" height="13.8"/>
				</defs>
				<clipPath id="SVGID_79_">
					<use xlink:href="#SVGID_78_"  style="overflow:visible;"/>
				</clipPath>
				<g class="st32">
					<defs>
						<path id="SVGID_80_" d="M14.8,62.6c0,3.8-3.1,6.9-6.9,6.9c-3.8,0-6.9-3.1-6.9-6.9c0-3.8,3.1-6.9,6.9-6.9
							C11.7,55.7,14.8,58.8,14.8,62.6"/>
					</defs>
					<clipPath id="SVGID_81_">
						<use xlink:href="#SVGID_80_"  style="overflow:visible;"/>
					</clipPath>
					
						<linearGradient id="SVGID_82_" gradientUnits="userSpaceOnUse" x1="1.032694e-04" y1="107.2574" x2="1.0001" y2="107.2574" gradientTransform="matrix(13.8376 0 0 -13.8376 0.9307 1546.8035)">
						<stop  offset="0" style="stop-color:#7CD1FF"/>
						<stop  offset="0.99" style="stop-color:#0CC2ED"/>
					</linearGradient>
					<rect x="0.9" y="55.7" class="st33" width="13.8" height="13.8"/>
				</g>
			</g>
		</g>
	</g>
</g>
<g>
	<g>
		<defs>
			<path id="SVGID_83_" d="M68.7,9.7c-0.4,0-0.7,0.3-0.7,0.8c0,0.4,0.3,0.8,0.7,0.8H73c0.4,0,0.7-0.3,0.7-0.8c0-0.4-0.3-0.8-0.7-0.8
				H68.7z"/>
		</defs>
		<clipPath id="SVGID_84_">
			<use xlink:href="#SVGID_83_"  style="overflow:visible;"/>
		</clipPath>
		
			<linearGradient id="SVGID_85_" gradientUnits="userSpaceOnUse" x1="-0.623" y1="107.6136" x2="0.377" y2="107.6136" gradientTransform="matrix(5.7734 0 0 -5.7734 71.5522 631.7311)">
			<stop  offset="0" style="stop-color:#7CD1FF"/>
			<stop  offset="0.99" style="stop-color:#0CC2ED"/>
		</linearGradient>
		<rect x="68" y="9.7" class="st34" width="5.8" height="1.5"/>
	</g>
	<g>
		<defs>
			<path id="SVGID_86_" d="M70.1,8.3v4.3c0,0.4,0.3,0.8,0.8,0.8c0.4,0,0.8-0.3,0.8-0.8V8.3c0-0.4-0.3-0.8-0.8-0.8
				C70.4,7.5,70.1,7.9,70.1,8.3"/>
		</defs>
		<clipPath id="SVGID_87_">
			<use xlink:href="#SVGID_86_"  style="overflow:visible;"/>
		</clipPath>
		
			<linearGradient id="SVGID_88_" gradientUnits="userSpaceOnUse" x1="-2.3981" y1="108.6307" x2="-1.3975" y2="108.6307" gradientTransform="matrix(1.5 0 0 -1.5 73.6885 173.3808)">
			<stop  offset="0" style="stop-color:#7CD1FF"/>
			<stop  offset="0.99" style="stop-color:#0CC2ED"/>
		</linearGradient>
		<rect x="70.1" y="7.5" class="st35" width="1.5" height="5.8"/>
	</g>
</g>
<g>
	<g>
		<defs>
			<path id="SVGID_89_" d="M169.1,13.4c-0.4,0-0.8,0.3-0.8,0.8c0,0.4,0.3,0.8,0.8,0.8h4.3c0.4,0,0.7-0.3,0.7-0.8
				c0-0.4-0.3-0.8-0.7-0.8H169.1z"/>
		</defs>
		<clipPath id="SVGID_90_">
			<use xlink:href="#SVGID_89_"  style="overflow:visible;"/>
		</clipPath>
		
			<linearGradient id="SVGID_91_" gradientUnits="userSpaceOnUse" x1="0.5335" y1="108.1397" x2="1.5333" y2="108.1397" gradientTransform="matrix(5.7744 0 0 -5.7744 165.2769 638.5855)">
			<stop  offset="0" style="stop-color:#7CD1FF"/>
			<stop  offset="0.99" style="stop-color:#0CC2ED"/>
		</linearGradient>
		<rect x="168.4" y="13.4" class="st36" width="5.8" height="1.5"/>
	</g>
	<g>
		<defs>
			<path id="SVGID_92_" d="M170.5,12v4.3c0,0.4,0.3,0.8,0.8,0.8c0.4,0,0.8-0.3,0.8-0.8V12c0-0.4-0.3-0.8-0.8-0.8
				C170.8,11.3,170.5,11.6,170.5,12"/>
		</defs>
		<clipPath id="SVGID_93_">
			<use xlink:href="#SVGID_92_"  style="overflow:visible;"/>
		</clipPath>
		
			<linearGradient id="SVGID_94_" gradientUnits="userSpaceOnUse" x1="2.0547" y1="110.6546" x2="3.0547" y2="110.6546" gradientTransform="matrix(1.5 0 0 -1.5 167.4131 180.125)">
			<stop  offset="0" style="stop-color:#7CD1FF"/>
			<stop  offset="0.99" style="stop-color:#0CC2ED"/>
		</linearGradient>
		<rect x="170.5" y="11.3" class="st37" width="1.5" height="5.8"/>
	</g>
</g>
<g>
	<g>
		<defs>
			<path id="SVGID_95_" d="M55.4,37.5l-3,3c-0.3,0.3-0.3,0.8,0,1.1c0.1,0.1,0.3,0.2,0.5,0.2c0.2,0,0.4-0.1,0.5-0.2l3-3
				c0.3-0.3,0.3-0.8,0-1.1c-0.1-0.1-0.3-0.2-0.5-0.2C55.7,37.3,55.5,37.4,55.4,37.5"/>
		</defs>
		<clipPath id="SVGID_96_">
			<use xlink:href="#SVGID_95_"  style="overflow:visible;"/>
		</clipPath>
		
			<linearGradient id="SVGID_97_" gradientUnits="userSpaceOnUse" x1="2.6638" y1="106.619" x2="3.664" y2="106.619" gradientTransform="matrix(4.5225 0 0 -4.5225 40.0679 521.7562)">
			<stop  offset="0" style="stop-color:#7CD1FF"/>
			<stop  offset="0.99" style="stop-color:#0CC2ED"/>
		</linearGradient>
		<rect x="52" y="37.3" class="st38" width="4.7" height="4.5"/>
	</g>
	<g>
		<defs>
			<path id="SVGID_98_" d="M52.3,37.5c-0.3,0.3-0.3,0.8,0,1.1l3,3c0.1,0.1,0.3,0.2,0.5,0.2c0.2,0,0.4-0.1,0.5-0.2
				c0.3-0.3,0.3-0.8,0-1.1l-3-3c-0.1-0.1-0.3-0.2-0.5-0.2C52.7,37.3,52.5,37.4,52.3,37.5"/>
		</defs>
		<clipPath id="SVGID_99_">
			<use xlink:href="#SVGID_98_"  style="overflow:visible;"/>
		</clipPath>
		
			<linearGradient id="SVGID_100_" gradientUnits="userSpaceOnUse" x1="2.6638" y1="106.619" x2="3.664" y2="106.619" gradientTransform="matrix(4.5225 0 0 -4.5225 40.0679 521.7562)">
			<stop  offset="0" style="stop-color:#7CD1FF"/>
			<stop  offset="0.99" style="stop-color:#0CC2ED"/>
		</linearGradient>
		<rect x="52" y="37.3" class="st39" width="4.7" height="4.5"/>
	</g>
</g>
<g>
	<defs>
		<polygon id="SVGID_101_" points="14.4,81.1 14.4,83.3 16.3,84.4 18.2,83.3 18.2,81.1 16.3,80 		"/>
	</defs>
	<clipPath id="SVGID_102_">
		<use xlink:href="#SVGID_101_"  style="overflow:visible;"/>
	</clipPath>
	
		<linearGradient id="SVGID_103_" gradientUnits="userSpaceOnUse" x1="-3.159225e-04" y1="107.2573" x2="0.9998" y2="107.2573" gradientTransform="matrix(3.7984 0 0 -3.7984 14.3713 489.5883)">
		<stop  offset="0" style="stop-color:#7CD1FF"/>
		<stop  offset="0.99" style="stop-color:#0CC2ED"/>
	</linearGradient>
	<rect x="14.4" y="80" class="st40" width="3.8" height="4.4"/>
</g>
<g>
	<defs>
		<polygon id="SVGID_104_" points="187.9,12.3 187.9,14.5 189.8,15.6 191.7,14.5 191.7,12.3 189.8,11.2 		"/>
	</defs>
	<clipPath id="SVGID_105_">
		<use xlink:href="#SVGID_104_"  style="overflow:visible;"/>
	</clipPath>
	
		<linearGradient id="SVGID_106_" gradientUnits="userSpaceOnUse" x1="-0.4186" y1="108.7968" x2="0.5812" y2="108.7968" gradientTransform="matrix(3.7984 0 0 -3.7984 189.5139 426.6469)">
		<stop  offset="0" style="stop-color:#7CD1FF"/>
		<stop  offset="0.99" style="stop-color:#0CC2ED"/>
	</linearGradient>
	<rect x="187.9" y="11.2" class="st41" width="3.8" height="4.4"/>
</g>
<g>
	<defs>
		<polygon id="SVGID_107_" points="186,83.3 186,85.5 187.9,86.6 189.8,85.5 189.8,83.3 187.9,82.2 		"/>
	</defs>
	<clipPath id="SVGID_108_">
		<use xlink:href="#SVGID_107_"  style="overflow:visible;"/>
	</clipPath>
	
		<linearGradient id="SVGID_109_" gradientUnits="userSpaceOnUse" x1="-0.5001" y1="104.0194" x2="0.5" y2="104.0194" gradientTransform="matrix(3.7984 0 0 -3.7984 187.924 479.4828)">
		<stop  offset="0" style="stop-color:#7CD1FF"/>
		<stop  offset="0.99" style="stop-color:#0CC2ED"/>
	</linearGradient>
	<rect x="186" y="82.2" class="st42" width="3.8" height="4.4"/>
</g>
<g>
	<defs>
		<polygon id="SVGID_110_" points="35.7,16.4 35.7,18.6 37.6,19.7 39.5,18.6 39.5,16.4 37.6,15.3 		"/>
	</defs>
	<clipPath id="SVGID_111_">
		<use xlink:href="#SVGID_110_"  style="overflow:visible;"/>
	</clipPath>
	
		<linearGradient id="SVGID_112_" gradientUnits="userSpaceOnUse" x1="3.1388" y1="107.1472" x2="4.139" y2="107.1472" gradientTransform="matrix(3.7984 0 0 -3.7984 23.8108 424.5062)">
		<stop  offset="0" style="stop-color:#7CD1FF"/>
		<stop  offset="0.99" style="stop-color:#0CC2ED"/>
	</linearGradient>
	<rect x="35.7" y="15.3" class="st43" width="3.8" height="4.4"/>
</g>
<g>
	<defs>
		<polygon id="SVGID_113_" points="102.2,9 102.2,11.9 104.8,13.4 107.4,11.9 107.4,9 104.8,7.5 		"/>
	</defs>
	<clipPath id="SVGID_114_">
		<use xlink:href="#SVGID_113_"  style="overflow:visible;"/>
	</clipPath>
	
		<linearGradient id="SVGID_115_" gradientUnits="userSpaceOnUse" x1="-1.882" y1="107.5122" x2="-0.8821" y2="107.5122" gradientTransform="matrix(5.1237 0 0 -5.1237 111.884 561.2948)">
		<stop  offset="0" style="stop-color:#7CD1FF"/>
		<stop  offset="0.99" style="stop-color:#0CC2ED"/>
	</linearGradient>
	<rect x="102.2" y="7.5" class="st44" width="5.1" height="5.9"/>
</g>
<g>
	<defs>
		<path id="SVGID_116_" d="M154.4,28.7c-0.4,0-0.8,0.3-0.8,0.8c0,0.4,0.3,0.8,0.8,0.8h42.3c0.4,0,0.8-0.3,0.8-0.8
			c0-0.4-0.3-0.8-0.8-0.8H154.4z"/>
	</defs>
	<linearGradient id="SVGID_117_" gradientUnits="userSpaceOnUse" x1="153.665" y1="29.4707" x2="197.4951" y2="29.4707">
		<stop  offset="0" style="stop-color:#7CD1FF"/>
		<stop  offset="0.99" style="stop-color:#0CC2ED"/>
	</linearGradient>
	<use xlink:href="#SVGID_116_"  style="overflow:visible;fill:url(#SVGID_117_);"/>
	<clipPath id="SVGID_118_">
		<use xlink:href="#SVGID_116_"  style="overflow:visible;"/>
	</clipPath>
	
		<linearGradient id="SVGID_119_" gradientUnits="userSpaceOnUse" x1="0.5159" y1="107.2899" x2="1.5159" y2="107.2899" gradientTransform="matrix(43.8301 0 0 -43.8301 131.0528 4731.9995)">
		<stop  offset="0" style="stop-color:#7CD1FF"/>
		<stop  offset="0.99" style="stop-color:#0CC2ED"/>
	</linearGradient>
	<rect x="153.7" y="28.7" class="st45" width="43.8" height="1.5"/>
</g>
<g>
	<defs>
		<path id="SVGID_120_" d="M149.3,28.7c-0.4,0-0.8,0.3-0.8,0.8c0,0.4,0.3,0.8,0.8,0.8h2.4c0.4,0,0.8-0.3,0.8-0.8
			c0-0.4-0.3-0.8-0.8-0.8H149.3z"/>
	</defs>
	<clipPath id="SVGID_121_">
		<use xlink:href="#SVGID_120_"  style="overflow:visible;"/>
	</clipPath>
	
		<linearGradient id="SVGID_122_" gradientUnits="userSpaceOnUse" x1="5.7292" y1="107.5963" x2="6.7292" y2="107.5963" gradientTransform="matrix(3.9316 0 0 -3.9316 126.0699 452.4965)">
		<stop  offset="0" style="stop-color:#7CD1FF"/>
		<stop  offset="0.99" style="stop-color:#0CC2ED"/>
	</linearGradient>
	<rect x="148.6" y="28.7" class="st46" width="3.9" height="1.5"/>
</g>
<g>
	<g>
		<defs>
			<path id="SVGID_123_" d="M141.1,28.7c-0.4,0-0.7,0.3-0.7,0.8c0,0.4,0.3,0.8,0.7,0.8h4.3c0.4,0,0.8-0.3,0.8-0.8
				c0-0.4-0.3-0.8-0.8-0.8H141.1z"/>
		</defs>
		<clipPath id="SVGID_124_">
			<use xlink:href="#SVGID_123_"  style="overflow:visible;"/>
		</clipPath>
		
			<linearGradient id="SVGID_125_" gradientUnits="userSpaceOnUse" x1="3.9157" y1="107.5032" x2="4.9157" y2="107.5032" gradientTransform="matrix(5.7734 0 0 -5.7734 117.724 650.1295)">
			<stop  offset="0" style="stop-color:#7CD1FF"/>
			<stop  offset="0.99" style="stop-color:#0CC2ED"/>
		</linearGradient>
		<rect x="140.3" y="28.7" class="st47" width="5.8" height="1.5"/>
	</g>
	<g>
		<defs>
			<path id="SVGID_126_" d="M142.5,27.3v4.3c0,0.4,0.3,0.8,0.8,0.8c0.4,0,0.7-0.3,0.7-0.8v-4.3c0-0.4-0.3-0.7-0.7-0.7
				C142.8,26.6,142.5,26.9,142.5,27.3"/>
		</defs>
		<clipPath id="SVGID_127_">
			<use xlink:href="#SVGID_126_"  style="overflow:visible;"/>
		</clipPath>
		
			<linearGradient id="SVGID_128_" gradientUnits="userSpaceOnUse" x1="15.0176" y1="108.1453" x2="16.0176" y2="108.1453" gradientTransform="matrix(1.5 0 0 -1.5 119.9414 191.6894)">
			<stop  offset="0" style="stop-color:#7CD1FF"/>
			<stop  offset="0.99" style="stop-color:#0CC2ED"/>
		</linearGradient>
		<rect x="142.5" y="26.6" class="st48" width="1.5" height="5.8"/>
	</g>
</g>
<g>
	<g>
		<defs>
			<path id="SVGID_129_" d="M74.5,25.1c-0.4,0-0.7,0.3-0.7,0.8c0,0.4,0.3,0.8,0.7,0.8h4.3c0.4,0,0.7-0.3,0.7-0.8
				c0-0.4-0.3-0.8-0.7-0.8H74.5z"/>
		</defs>
		<clipPath id="SVGID_130_">
			<use xlink:href="#SVGID_129_"  style="overflow:visible;"/>
		</clipPath>
		
			<linearGradient id="SVGID_131_" gradientUnits="userSpaceOnUse" x1="-4.4447" y1="106.8071" x2="-3.4448" y2="106.8071" gradientTransform="matrix(5.7744 0 0 -5.7744 99.3941 642.5815)">
			<stop  offset="0" style="stop-color:#7CD1FF"/>
			<stop  offset="0.99" style="stop-color:#0CC2ED"/>
		</linearGradient>
		<rect x="73.7" y="25.1" class="st49" width="5.8" height="1.5"/>
	</g>
	<g>
		<defs>
			<path id="SVGID_132_" d="M75.9,23.7V28c0,0.4,0.3,0.8,0.8,0.8c0.4,0,0.8-0.3,0.8-0.8v-4.3c0-0.4-0.3-0.8-0.8-0.8
				C76.2,22.9,75.9,23.3,75.9,23.7"/>
		</defs>
		<clipPath id="SVGID_133_">
			<use xlink:href="#SVGID_132_"  style="overflow:visible;"/>
		</clipPath>
		
			<linearGradient id="SVGID_134_" gradientUnits="userSpaceOnUse" x1="-17.1615" y1="105.4723" x2="-16.1608" y2="105.4723" gradientTransform="matrix(1.5 0 0 -1.5 101.6074 184.0429)">
			<stop  offset="0" style="stop-color:#7CD1FF"/>
			<stop  offset="0.99" style="stop-color:#0CC2ED"/>
		</linearGradient>
		<rect x="75.9" y="22.9" class="st50" width="1.5" height="5.8"/>
	</g>
</g>
<g>
	<g>
		<defs>
			<path id="SVGID_135_" d="M148.8,51.6c-0.3,0.3-0.3,0.8,0,1.1l3,3c0.1,0.1,0.3,0.2,0.5,0.2s0.4-0.1,0.5-0.2c0.3-0.3,0.3-0.8,0-1.1
				l-3-3c-0.1-0.1-0.3-0.2-0.5-0.2C149.1,51.4,148.9,51.4,148.8,51.6"/>
		</defs>
		<clipPath id="SVGID_136_">
			<use xlink:href="#SVGID_135_"  style="overflow:visible;"/>
		</clipPath>
		
			<linearGradient id="SVGID_137_" gradientUnits="userSpaceOnUse" x1="-2.0931" y1="105.8257" x2="-1.0927" y2="105.8257" gradientTransform="matrix(4.5225 0 0 -4.5225 158.0171 532.225)">
			<stop  offset="0" style="stop-color:#7CD1FF"/>
			<stop  offset="0.99" style="stop-color:#0CC2ED"/>
		</linearGradient>
		<rect x="148.5" y="51.4" class="st51" width="4.7" height="4.5"/>
	</g>
	<g>
		<defs>
			<path id="SVGID_138_" d="M151.8,51.6l-3,3c-0.3,0.3-0.3,0.8,0,1.1c0.1,0.1,0.3,0.2,0.5,0.2c0.2,0,0.4-0.1,0.5-0.2l3-3
				c0.3-0.3,0.3-0.8,0-1.1c-0.1-0.1-0.3-0.2-0.5-0.2S151.9,51.4,151.8,51.6"/>
		</defs>
		<clipPath id="SVGID_139_">
			<use xlink:href="#SVGID_138_"  style="overflow:visible;"/>
		</clipPath>
		
			<linearGradient id="SVGID_140_" gradientUnits="userSpaceOnUse" x1="-2.0931" y1="105.8257" x2="-1.0927" y2="105.8257" gradientTransform="matrix(4.5225 0 0 -4.5225 158.0171 532.225)">
			<stop  offset="0" style="stop-color:#7CD1FF"/>
			<stop  offset="0.99" style="stop-color:#0CC2ED"/>
		</linearGradient>
		<rect x="148.5" y="51.4" class="st52" width="4.7" height="4.5"/>
	</g>
</g>
<g>
	<defs>
		<path id="SVGID_141_" d="M33.2,48c-0.4,0-0.8,0.3-0.8,0.7s0.3,0.8,0.8,0.8h26.1c0.4,0,0.7-0.3,0.7-0.8S59.8,48,59.4,48H33.2z"/>
	</defs>
	<clipPath id="SVGID_142_">
		<use xlink:href="#SVGID_141_"  style="overflow:visible;"/>
	</clipPath>
	
		<linearGradient id="SVGID_143_" gradientUnits="userSpaceOnUse" x1="0.2576" y1="107.2017" x2="1.2575" y2="107.2017" gradientTransform="matrix(27.6475 0 0 -27.6475 25.368 3012.5642)">
		<stop  offset="0" style="stop-color:#7CD1FF"/>
		<stop  offset="0.99" style="stop-color:#0CC2ED"/>
	</linearGradient>
	<rect x="32.5" y="48" class="st53" width="27.6" height="1.5"/>
</g>
<g>
	<defs>
		<path id="SVGID_144_" d="M17.4,25.1c-0.4,0-0.8,0.3-0.8,0.8c0,0.4,0.3,0.8,0.8,0.8h50.8c0.4,0,0.8-0.3,0.8-0.8
			c0-0.4-0.3-0.8-0.8-0.8H17.4z"/>
	</defs>
	<linearGradient id="SVGID_145_" gradientUnits="userSpaceOnUse" x1="16.6416" y1="25.8345" x2="68.9746" y2="25.8345">
		<stop  offset="0" style="stop-color:#7CD1FF"/>
		<stop  offset="0.99" style="stop-color:#0CC2ED"/>
	</linearGradient>
	<use xlink:href="#SVGID_144_"  style="overflow:visible;fill:url(#SVGID_145_);"/>
	<clipPath id="SVGID_146_">
		<use xlink:href="#SVGID_144_"  style="overflow:visible;"/>
	</clipPath>
	
		<linearGradient id="SVGID_147_" gradientUnits="userSpaceOnUse" x1="-0.3474" y1="107.2078" x2="0.6526" y2="107.2078" gradientTransform="matrix(52.333 0 0 -52.333 34.82 5636.3423)">
		<stop  offset="0" style="stop-color:#7CD1FF"/>
		<stop  offset="0.99" style="stop-color:#0CC2ED"/>
	</linearGradient>
	<rect x="16.6" y="25.1" class="st54" width="52.3" height="1.5"/>
</g>
<g>
	<defs>
		<path id="SVGID_148_" d="M155.5,53.2c-0.4,0-0.7,0.3-0.7,0.8c0,0.4,0.3,0.8,0.7,0.8H187c0.4,0,0.8-0.3,0.8-0.8
			c0-0.4-0.3-0.8-0.8-0.8H155.5z"/>
	</defs>
	<linearGradient id="SVGID_149_" gradientUnits="userSpaceOnUse" x1="154.7148" y1="53.9961" x2="187.7734" y2="53.9961">
		<stop  offset="0" style="stop-color:#7CD1FF"/>
		<stop  offset="0.99" style="stop-color:#0CC2ED"/>
	</linearGradient>
	<use xlink:href="#SVGID_148_"  style="overflow:visible;fill:url(#SVGID_149_);"/>
	<clipPath id="SVGID_150_">
		<use xlink:href="#SVGID_148_"  style="overflow:visible;"/>
	</clipPath>
	
		<linearGradient id="SVGID_151_" gradientUnits="userSpaceOnUse" x1="-0.2872" y1="107.0615" x2="0.7128" y2="107.0615" gradientTransform="matrix(33.0576 0 0 -33.0576 164.2088 3593.1912)">
		<stop  offset="0" style="stop-color:#7CD1FF"/>
		<stop  offset="0.99" style="stop-color:#0CC2ED"/>
	</linearGradient>
	<rect x="154.7" y="53.2" class="st55" width="33.1" height="1.5"/>
</g>
<g>
	<defs>
		<polygon id="SVGID_152_" points="16.7,53.6 16.7,55.3 18.1,56.2 19.6,55.3 19.6,53.6 18.1,52.8 		"/>
	</defs>
	<clipPath id="SVGID_153_">
		<use xlink:href="#SVGID_152_"  style="overflow:visible;"/>
	</clipPath>
	
		<linearGradient id="SVGID_154_" gradientUnits="userSpaceOnUse" x1="-6.793478e-05" y1="107.2576" x2="1" y2="107.2576" gradientTransform="matrix(2.944 0 0 -2.944 16.655 370.2545)">
		<stop  offset="0" style="stop-color:#7CD1FF"/>
		<stop  offset="0.99" style="stop-color:#0CC2ED"/>
	</linearGradient>
	<rect x="16.7" y="52.8" class="st56" width="2.9" height="3.4"/>
</g>
<rect class="st57" width="209.6" height="107.3"/>
<rect class="st57" width="209.6" height="107.3"/>
<rect class="st57" width="209.6" height="107.3"/>
<rect class="st57" width="209.6" height="107.3"/>
<rect class="st57" width="209.6" height="107.3"/>
<rect class="st57" width="209.6" height="107.3"/>
<g>
	<defs>
		<path id="SVGID_155_" d="M202.6,105c-0.4,0-0.8,0.3-0.8,0.8c0,0.4,0.3,0.8,0.8,0.8h2.7c0.4,0,0.7-0.3,0.7-0.8
			c0-0.4-0.3-0.8-0.7-0.8H202.6z"/>
	</defs>
	<linearGradient id="SVGID_156_" gradientUnits="userSpaceOnUse" x1="201.8057" y1="105.7812" x2="206.0254" y2="105.7812">
		<stop  offset="0" style="stop-color:#7CD1FF"/>
		<stop  offset="0.99" style="stop-color:#0CC2ED"/>
	</linearGradient>
	<use xlink:href="#SVGID_155_"  style="overflow:visible;fill:url(#SVGID_156_);"/>
	<clipPath id="SVGID_157_">
		<use xlink:href="#SVGID_155_"  style="overflow:visible;"/>
	</clipPath>
	
		<linearGradient id="SVGID_158_" gradientUnits="userSpaceOnUse" x1="2.357755e-04" y1="107.2576" x2="1.0002" y2="107.2576" gradientTransform="matrix(4.2197 0 0 -4.2197 201.8047 558.3762)">
		<stop  offset="0" style="stop-color:#7CD1FF"/>
		<stop  offset="0.99" style="stop-color:#0CC2ED"/>
	</linearGradient>
	<rect x="201.8" y="105" class="st58" width="4.2" height="1.5"/>
</g>
<g>
	<defs>
		<path id="SVGID_159_" d="M8.4,105c-0.4,0-0.7,0.3-0.7,0.8c0,0.4,0.3,0.8,0.7,0.8H13c0.4,0,0.8-0.3,0.8-0.8c0-0.4-0.3-0.8-0.8-0.8
			H8.4z"/>
	</defs>
	<linearGradient id="SVGID_160_" gradientUnits="userSpaceOnUse" x1="7.6001" y1="105.7812" x2="13.7139" y2="105.7812">
		<stop  offset="0" style="stop-color:#7CD1FF"/>
		<stop  offset="0.99" style="stop-color:#0CC2ED"/>
	</linearGradient>
	<use xlink:href="#SVGID_159_"  style="overflow:visible;fill:url(#SVGID_160_);"/>
	<clipPath id="SVGID_161_">
		<use xlink:href="#SVGID_159_"  style="overflow:visible;"/>
	</clipPath>
	
		<linearGradient id="SVGID_162_" gradientUnits="userSpaceOnUse" x1="-1.308622e-04" y1="107.2574" x2="1" y2="107.2574" gradientTransform="matrix(6.1133 0 0 -6.1133 7.6009 761.4781)">
		<stop  offset="0" style="stop-color:#7CD1FF"/>
		<stop  offset="0.99" style="stop-color:#0CC2ED"/>
	</linearGradient>
	<rect x="7.6" y="105" class="st59" width="6.1" height="1.5"/>
</g>
<rect class="st57" width="209.6" height="107.3"/>
<rect class="st57" width="209.6" height="107.3"/>
<path class="st57" d="M80.7,83.2c-0.7,0-1.3,0.6-1.3,1.3c0,0.7,0.6,1.3,1.3,1.3c0.7,0,1.3-0.6,1.3-1.3C82,83.8,81.5,83.2,80.7,83.2z
	"/>
<g>
	<linearGradient id="SVGID_163_" gradientUnits="userSpaceOnUse" x1="142.6409" y1="71.5622" x2="67.3281" y2="95.7426">
		<stop  offset="0" style="stop-color:#7CD1FF"/>
		<stop  offset="0.99" style="stop-color:#0CC2ED"/>
	</linearGradient>
	<path class="st60" d="M70,64.4c0,4.1,2.8,7.4,6.5,8.4v28.6h-4.4c-1.2,0-2.2,1-2.2,2.2c0,1.2,1,2.2,2.2,2.2h65.3
		c1.2,0,2.2-1,2.2-2.2c0-1.2-1-2.2-2.2-2.2h-4.4V72.8c3.8-1,6.5-4.4,6.5-8.4v-2.2H70V64.4z"/>
	<path class="st61" d="M114,73.1c4.7,0,8.4-3.9,8.4-8.7c0,4.1,2.7,7.4,6.3,8.4v28.6H97.2V73.1c4.7,0,8.4-3.9,8.4-8.7
		C105.6,69.2,109.4,73.1,114,73.1z"/>
	<path class="st61" d="M93,72.8v28.6H80.8V72.8c3.5-1,6.1-4.4,6.1-8.4C86.9,68.5,89.5,71.8,93,72.8z"/>
	<linearGradient id="SVGID_164_" gradientUnits="userSpaceOnUse" x1="134.2601" y1="42.1865" x2="71.0893" y2="62.4684">
		<stop  offset="0" style="stop-color:#7CD1FF"/>
		<stop  offset="0.99" style="stop-color:#0CC2ED"/>
	</linearGradient>
	<polygon class="st62" points="130.9,41.5 78.7,41.5 70,59 139.6,59 	"/>
	<path class="st63" d="M88.4,46.4L84,55.1c-0.2,0.4-0.6,0.6-1,0.6c-0.2,0-0.3,0-0.5-0.1c-0.5-0.3-0.8-0.9-0.5-1.5l4.4-8.7
		c0.3-0.5,0.9-0.8,1.5-0.5C88.4,45.2,88.6,45.8,88.4,46.4z"/>
	<path class="st63" d="M97.1,46.4l-4.4,8.7c-0.2,0.4-0.6,0.6-1,0.6c-0.2,0-0.3,0-0.5-0.1c-0.5-0.3-0.8-0.9-0.5-1.5l4.4-8.7
		c0.3-0.5,0.9-0.8,1.5-0.5C97.1,45.2,97.3,45.8,97.1,46.4z"/>
	<path class="st63" d="M105.9,54.6c0,0.6-0.5,1.1-1.1,1.1c-0.6,0-1.1-0.5-1.1-1.1v-8.7c0-0.6,0.5-1.1,1.1-1.1c0.6,0,1.1,0.5,1.1,1.1
		V54.6z"/>
	<path class="st63" d="M118.4,55.6c-0.2,0.1-0.3,0.1-0.5,0.1c-0.4,0-0.8-0.2-1-0.6l-4.8-8.7c-0.3-0.5-0.1-1.2,0.4-1.5
		c0.5-0.3,1.2-0.1,1.5,0.4l4.8,8.7C119.1,54.6,118.9,55.3,118.4,55.6z"/>
	<path class="st63" d="M127.1,55.6c-0.2,0.1-0.3,0.1-0.5,0.1c-0.4,0-0.8-0.2-1-0.6l-4.4-8.7c-0.3-0.5-0.1-1.2,0.5-1.5
		c0.5-0.3,1.2-0.1,1.5,0.5l4.4,8.7C127.8,54.7,127.6,55.3,127.1,55.6z"/>
	<path class="st63" d="M86.3,88.7v-5c-0.6-0.4-1.1-1-1.1-1.8c0-1.2,1-2.2,2.2-2.2c1.2,0,2.2,1,2.2,2.2c0,0.8-0.4,1.5-1.1,1.8v5
		c0.6,0.4,1.1,1,1.1,1.8c0,1.2-1,2.2-2.2,2.2c-1.2,0-2.2-1-2.2-2.2C85.2,89.7,85.7,89.1,86.3,88.7z"/>
	<linearGradient id="SVGID_165_" gradientUnits="userSpaceOnUse" x1="128.5921" y1="28.4466" x2="81.0141" y2="43.7222">
		<stop  offset="0" style="stop-color:#7CD1FF"/>
		<stop  offset="0.99" style="stop-color:#0CC2ED"/>
	</linearGradient>
	<path class="st64" d="M78.7,36.1c0-1.2,1-2.2,2.2-2.2h47.9c1.2,0,2.2,1,2.2,2.2c0,1.2-1,2.2-2.2,2.2H80.8
		C79.6,38.3,78.7,37.3,78.7,36.1z"/>
	
		<rect x="106.1" y="79.8" transform="matrix(0.7076 -0.7066 0.7066 0.7076 -24.8905 101.7054)" class="st63" width="8.7" height="2.2"/>
	
		<rect x="104.8" y="82.9" transform="matrix(0.7076 -0.7066 0.7066 0.7076 -26.1657 104.7822)" class="st63" width="17.4" height="2.2"/>
	
		<rect x="112.2" y="86" transform="matrix(0.7076 -0.7066 0.7066 0.7076 -27.4422 107.8536)" class="st63" width="8.7" height="2.2"/>
</g>
<g>
	<defs>
		<path id="SVGID_166_" d="M15.7,105c-0.4,0-0.8,0.3-0.8,0.8c0,0.4,0.3,0.8,0.8,0.8h184.2c0.4,0,0.8-0.3,0.8-0.8
			c0-0.4-0.3-0.8-0.8-0.8H15.7z"/>
	</defs>
	<linearGradient id="SVGID_167_" gradientUnits="userSpaceOnUse" x1="14.915" y1="105.7812" x2="200.5928" y2="105.7812">
		<stop  offset="0" style="stop-color:#7CD1FF"/>
		<stop  offset="0.99" style="stop-color:#0CC2ED"/>
	</linearGradient>
	<use xlink:href="#SVGID_166_"  style="overflow:visible;fill:url(#SVGID_167_);"/>
	<clipPath id="SVGID_168_">
		<use xlink:href="#SVGID_166_"  style="overflow:visible;"/>
	</clipPath>
	<linearGradient id="SVGID_169_" gradientUnits="userSpaceOnUse" x1="14.915" y1="105.7812" x2="200.5928" y2="105.7812">
		<stop  offset="0" style="stop-color:#7CD1FF"/>
		<stop  offset="0.99" style="stop-color:#0CC2ED"/>
	</linearGradient>
	<rect x="14.9" y="105" class="st65" width="185.7" height="1.5"/>
</g>
<g>
	<path class="st63" d="M144.2,103.9h4.3c0.1,0.6,0.4,1.1,0.8,1.1h9.8c0.4,0,0.7-0.5,0.8-1.1h4.3c0.7,0,1.3-1,1.3-2.1h-22.6
		C142.9,103,143.5,103.9,144.2,103.9z"/>
	<path class="st61" d="M170.7,90.2c-1.1-0.9-2.6-0.9-3.7-0.8c0-0.7,0-1.4,0-2.2h-26.8c0,7.3,1.1,12.5,8,14.4H159
		c2.8-0.8,4.6-2.1,5.8-3.8c2.6-0.1,6.9-1.1,7-4.7C171.9,91.6,171.2,90.7,170.7,90.2z M165.9,95.8c0.5-1.3,0.8-2.8,1-4.4
		c0.7-0.1,1.9-0.2,2.6,0.3c0.1,0.1,0.5,0.4,0.4,1.3C169.8,95,167.4,95.6,165.9,95.8z"/>
	<path class="st63" d="M151.2,85.9c0,0,5.1-0.4,2.8-4.7c-1.9-3.5-1.5-5.5,1-7.3c0,0-7.9,2-3.3,8.2C153.3,84.8,151.2,85.9,151.2,85.9
		z"/>
	<path class="st63" d="M154.8,85.5c0,0,4.1-0.9,1.9-4.2c-0.8-1.4,0.3-1.9,0.3-1.9s-2.6,0.1-1.5,2.3C156.3,83.6,156,84.6,154.8,85.5z
		"/>
</g>
<g>
	<path class="st66" d="M62.8,85.7L62.8,85.7L62.8,85.7c0,5-4,8.9-8.9,8.9c-2.4,0-4.6-0.9-6.3-2.6c-1.7-1.7-2.6-3.9-2.6-6.3
		c0,0,0-0.1,0-0.1c0-0.9,0.1-1.8,0.2-2.7h10.6c0,0,0,0,0,0c0,0,0,0,0,0h6.8C62.7,83.9,62.8,84.9,62.8,85.7z"/>
	<g>
		<g>
			<path class="st63" d="M66.8,63.5h-8.1c-0.4,0-0.7,0.3-0.8,0.7l-1.2,7.4h-0.4c-0.2-2.1-1-4-2.5-5.5c-1.7-1.7-3.9-2.6-6.3-2.6
				c0,0,0,0,0,0c0,0,0,0,0,0c0,0,0,0,0,0c0,0,0,0,0,0c-2.4,0-4.6,0.9-6.3,2.7c-1.6,1.7-2.5,3.9-2.6,6.2c0,0,0,0,0,0c0,0,0,0,0,0
				s0,0,0,0c0,0,0,0,0,0.1c0,2.4,0.9,4.6,2.6,6.3l0,0c0.8,0.8,1.8,1.5,2.9,1.9c-0.1,0.4-0.2,0.9-0.3,1.3c-0.3,1.2-0.4,2.4-0.4,3.7
				c0,0.1,0,0.1,0,0.2c0,2.8,1.1,5.4,3.1,7.4c1.4,1.4,3.1,2.4,5,2.8v7.2h-5.7c-0.4,0-0.8,0.4-0.8,0.8c0,0.4,0.4,0.8,0.8,0.8H62
				c0.4,0,0.8-0.4,0.8-0.8c0-0.4-0.4-0.8-0.8-0.8h-5.7V96c4.6-1.1,8.1-5.3,8.1-10.2v-0.1c0-1.1-0.1-2.3-0.3-3.5c0,0,0-0.1,0-0.1
				c0-0.1,0-0.2-0.1-0.3c-0.1-0.8-0.3-1.6-0.5-2.2l-2.4-7.4c-0.1-0.3-0.4-0.6-0.8-0.6h-2l1.1-6.5h7.4c0.4,0,0.8-0.4,0.8-0.8
				C67.6,63.9,67.3,63.5,66.8,63.5z M54.7,71.6h-5.2l3.7-3.7C54,68.9,54.6,70.2,54.7,71.6z M48.3,65.2c1.4,0.2,2.7,0.7,3.8,1.6
				l-3.8,3.8V65.2z M48,73.2h8.5l-1.4,8.2h-9.5c0.1-0.3,0.2-0.5,0.2-0.8c0,0,0,0,0,0L48,73.2z M46.7,65.2v5.4l-3.8-3.8
				C44,65.9,45.3,65.3,46.7,65.2z M41.8,67.9l3.7,3.7h-5.2C40.4,70.2,40.9,69,41.8,67.9z M40.2,73.2h5.4c-0.1,0-0.1,0.1-0.1,0.1
				L41.8,77C40.9,75.9,40.4,74.6,40.2,73.2z M42.9,78.1l2.7-2.7l-1.1,3.7C44,78.9,43.4,78.5,42.9,78.1z M54.7,103.2h-1.6v-6.9h1.6
				V103.2z M62.8,85.7L62.8,85.7L62.8,85.7c0,5-4,8.9-8.9,8.9c-2.4,0-4.6-0.9-6.3-2.6c-1.7-1.7-2.6-3.9-2.6-6.3c0,0,0-0.1,0-0.1
				c0-0.9,0.1-1.8,0.2-2.7h10.6c0,0,0,0,0,0c0,0,0,0,0,0h6.8C62.7,83.9,62.8,84.9,62.8,85.7z M59.7,73.2l2.2,6.9
				c0.1,0.4,0.2,0.8,0.3,1.3h-5.5l1.4-8.2H59.7z"/>
		</g>
	</g>
</g>
</svg>
