<svg width="368" height="298" viewBox="0 0 368 298" fill="none" xmlns="http://www.w3.org/2000/svg">
<path d="M279.055 53.9174C254.728 29.5938 221.121 14.5473 183.995 14.5473V5.34509C183.995 3.48897 182.473 1.96321 180.613 2.00068C142.575 2.86232 108.085 18.1778 82.4366 42.6683C81.0948 43.9489 81.0948 46.0979 82.406 47.4159L88.9177 53.9345C64.5907 78.2649 49.5442 111.876 49.5442 149.002H40.3419C38.4824 149.002 36.9567 150.524 37.0009 152.384C37.8592 190.422 53.1747 224.912 77.6652 250.56C78.9458 251.902 81.0982 251.902 82.4128 250.591L88.9347 244.082C113.265 268.406 146.876 283.456 183.995 283.456V292.658C183.995 294.514 185.521 296.04 187.38 295.999C225.426 295.144 259.909 279.825 285.557 255.338C286.902 254.054 286.902 251.905 285.588 250.591L279.076 244.069C303.4 219.735 318.446 186.131 318.446 149.008H327.652C329.508 149.008 331.034 147.483 330.993 145.623C330.131 107.581 314.819 73.0984 290.328 47.4466C289.048 46.1047 286.899 46.1047 285.581 47.4193L279.059 53.9276L279.055 53.9174Z" fill="#FFB26E"/>
<mask id="mask0_7428_3710" style="mask-type:luminance" maskUnits="userSpaceOnUse" x="37" y="2" width="294" height="294">
<path d="M279.055 53.9174C254.728 29.5938 221.121 14.5473 183.995 14.5473V5.34509C183.995 3.48897 182.473 1.96321 180.613 2.00068C142.575 2.86232 108.085 18.1778 82.4366 42.6683C81.0948 43.9489 81.0948 46.0979 82.406 47.4159L88.9177 53.9345C64.5907 78.2649 49.5442 111.876 49.5442 149.002H40.3419C38.4824 149.002 36.9567 150.524 37.0009 152.384C37.8592 190.422 53.1747 224.912 77.6652 250.56C78.9458 251.902 81.0982 251.902 82.4128 250.591L88.9347 244.082C113.265 268.406 146.876 283.456 183.995 283.456V292.658C183.995 294.514 185.521 296.04 187.38 295.999C225.426 295.144 259.909 279.825 285.557 255.338C286.902 254.054 286.902 251.905 285.588 250.591L279.076 244.069C303.4 219.735 318.446 186.131 318.446 149.008H327.652C329.508 149.008 331.034 147.483 330.993 145.623C330.131 107.581 314.819 73.0984 290.328 47.4466C289.048 46.1047 286.899 46.1047 285.581 47.4193L279.059 53.9276L279.055 53.9174Z" fill="white"/>
</mask>
<g mask="url(#mask0_7428_3710)">
<path d="M31.7869 173.656L174.786 267.183C179.316 270.146 184.983 270.787 190.061 268.913L307.561 225.528L319.393 191.924L165.935 111.086L46.2782 134.258L34.9882 155.316L31.7869 173.656Z" fill="white" stroke="black" stroke-width="1.2" stroke-linecap="round" stroke-linejoin="round"/>
<path d="M33.7961 157.24L176.795 250.768C181.325 253.731 186.992 254.371 192.07 252.498L309.571 209.112L321.402 175.508L167.944 94.6702L48.2909 117.843L37.0009 138.9L33.7995 157.24H33.7961Z" fill="#FFB26E" stroke="black" stroke-width="1.2" stroke-linecap="round" stroke-linejoin="round"/>
<path d="M187.118 253.526L185.848 269.881L188.389 269.428L307.561 225.528L309.571 209.113L192.07 252.498L189.308 253.557L187.118 253.526Z" fill="black"/>
<path d="M182.96 253.254L181.482 269.762L177.599 268.668L179.329 252.144L182.96 253.254Z" fill="black"/>
</g>
<path d="M279.055 53.9174C254.728 29.5938 221.121 14.5473 183.995 14.5473V5.34509C183.995 3.48897 182.473 1.96321 180.613 2.00068C142.575 2.86232 108.085 18.1778 82.4366 42.6683C81.0948 43.9489 81.0948 46.0979 82.406 47.4159L88.9177 53.9345C64.5907 78.2649 49.5442 111.876 49.5442 149.002H40.3419C38.4824 149.002 36.9567 150.524 37.0009 152.384C37.8592 190.422 53.1747 224.912 77.6652 250.56C78.9458 251.902 81.0982 251.902 82.4128 250.591L88.9347 244.082C113.265 268.406 146.876 283.456 183.995 283.456V292.658C183.995 294.514 185.521 296.04 187.38 295.999C225.426 295.144 259.909 279.825 285.557 255.338C286.902 254.054 286.902 251.905 285.588 250.591L279.076 244.069C303.4 219.735 318.446 186.131 318.446 149.008H327.652C329.508 149.008 331.034 147.483 330.993 145.623C330.131 107.581 314.819 73.0984 290.328 47.4466C289.048 46.1047 286.899 46.1047 285.581 47.4193L279.059 53.9276L279.055 53.9174Z" stroke="white" stroke-width="2" stroke-linecap="round" stroke-linejoin="round"/>
<path d="M98.9236 64.7986L100.8 130.801C100.8 135.668 115.945 139.612 134.633 139.612C153.32 139.612 168.465 135.668 168.465 130.801L170.341 64.7986H98.927H98.9236Z" fill="#FFB26E"/>
<mask id="mask1_7428_3710" style="mask-type:luminance" maskUnits="userSpaceOnUse" x="98" y="64" width="73" height="76">
<path d="M98.9236 64.7986L100.8 130.801C100.8 135.668 115.945 139.612 134.633 139.612C153.32 139.612 168.465 135.668 168.465 130.801L170.341 64.7986H98.927H98.9236Z" fill="white"/>
</mask>
<g mask="url(#mask1_7428_3710)">
<path d="M102.837 69.0353L101.383 118.779H100.364L99.1995 65.96L102.837 69.0353Z" fill="white"/>
<path d="M111.951 72.0152L108.787 123.554V71.2148L111.951 72.0152Z" fill="white"/>
<path d="M121.752 73.4729L119.416 113.102V73.4729H121.752Z" fill="white"/>
<path d="M131.442 74.0212L130.321 112.53L130.045 74.338L131.442 74.0212Z" fill="white"/>
</g>
<path d="M98.9236 64.7986L100.8 130.801C100.8 135.668 115.945 139.612 134.633 139.612C153.32 139.612 168.465 135.668 168.465 130.801L170.341 64.7986H98.927H98.9236Z" stroke="black" stroke-width="1.2" stroke-linecap="round" stroke-linejoin="round"/>
<path d="M97.9973 49.6533L98.9237 64.8019C98.9237 69.9378 114.91 74.0996 134.629 74.0996C154.348 74.0996 170.335 69.9378 170.335 64.8019L171.261 49.6533H97.9939H97.9973Z" fill="#FFB26E"/>
<mask id="mask2_7428_3710" style="mask-type:luminance" maskUnits="userSpaceOnUse" x="97" y="49" width="75" height="26">
<path d="M97.9973 49.6533L98.9237 64.8019C98.9237 69.9378 114.91 74.0996 134.629 74.0996C154.348 74.0996 170.335 69.9378 170.335 64.8019L171.261 49.6533H97.9939H97.9973Z" fill="white"/>
</mask>
<g mask="url(#mask2_7428_3710)">
<path d="M103.412 54.6427L102.837 69.0318C102.837 69.0318 99.5197 67.8194 99.203 65.9565C98.8862 64.0935 98.0007 49.6499 98.0007 49.6499L103.416 54.6427H103.412Z" fill="white"/>
<path d="M105.755 54.9663L105.708 70.2341L108.787 71.215V55.9165L105.755 54.9663Z" fill="white"/>
<path d="M111.95 56.9656V72.0154L113.333 72.2402L113.211 57.3743L111.95 56.9656Z" fill="white"/>
</g>
<path d="M97.9973 49.6533L98.9237 64.8019C98.9237 69.9378 114.91 74.0996 134.629 74.0996C154.348 74.0996 170.335 69.9378 170.335 64.8019L171.261 49.6533H97.9939H97.9973Z" stroke="black" stroke-width="1.2" stroke-linecap="round" stroke-linejoin="round"/>
<path d="M134.633 59.1894C154.866 59.1894 171.268 54.9185 171.268 49.65C171.268 44.3815 154.866 40.1106 134.633 40.1106C114.399 40.1106 97.9973 44.3815 97.9973 49.65C97.9973 54.9185 114.399 59.1894 134.633 59.1894Z" fill="#FFB26E"/>
<mask id="mask3_7428_3710" style="mask-type:luminance" maskUnits="userSpaceOnUse" x="97" y="40" width="75" height="20">
<path d="M134.633 59.1894C154.866 59.1894 171.268 54.9185 171.268 49.65C171.268 44.3815 154.866 40.1106 134.633 40.1106C114.399 40.1106 97.9973 44.3815 97.9973 49.65C97.9973 54.9185 114.399 59.1894 134.633 59.1894Z" fill="white"/>
</mask>
<g mask="url(#mask3_7428_3710)">
<path d="M108.787 56.5229L115.509 41.5139C115.509 41.5139 107.85 42.0077 102.619 45.0116C97.3842 48.0154 95.3033 51.3122 102.765 54.3569C110.231 57.4016 108.79 56.5195 108.79 56.5195L108.787 56.5229Z" fill="white"/>
<path d="M118.561 41.0437L112.073 56.8803L113.282 57.4047L120.009 40.9041L118.561 41.0437Z" fill="white"/>
</g>
<path d="M134.633 59.1894C154.866 59.1894 171.268 54.9185 171.268 49.65C171.268 44.3815 154.866 40.1106 134.633 40.1106C114.399 40.1106 97.9973 44.3815 97.9973 49.65C97.9973 54.9185 114.399 59.1894 134.633 59.1894Z" stroke="black" stroke-width="1.2" stroke-linecap="round" stroke-linejoin="round"/>
<path d="M134.633 56.9109C152.434 56.9109 166.864 53.66 166.864 49.6499C166.864 45.6398 152.434 42.3889 134.633 42.3889C116.832 42.3889 102.401 45.6398 102.401 49.6499C102.401 53.66 116.832 56.9109 134.633 56.9109Z" fill="#FFB26E" stroke="black" stroke-width="1.2" stroke-linecap="round" stroke-linejoin="round"/>
<path d="M108.787 71.2151V136.656" stroke="black" stroke-width="1.2" stroke-linecap="round" stroke-linejoin="round"/>
<path d="M119.416 73.2278V138.689" stroke="black" stroke-width="1.2" stroke-linecap="round" stroke-linejoin="round"/>
<path d="M130.045 74.0212V138.689" stroke="black" stroke-width="1.2" stroke-linecap="round" stroke-linejoin="round"/>
<path d="M140.674 74.3381V138.689" stroke="black" stroke-width="1.2" stroke-linecap="round" stroke-linejoin="round"/>
<path d="M161.933 71.1843L161.119 136.278" stroke="black" stroke-width="1.2" stroke-linecap="round" stroke-linejoin="round"/>
<path d="M151.304 73.2278V138.032" stroke="black" stroke-width="1.2" stroke-linecap="round" stroke-linejoin="round"/>
<path d="M130.185 42.3923C148.991 43.1518 158.33 46.3941 160.067 49.2378C161.803 52.0816 159.699 54.217 159.699 54.217C159.699 54.217 168.826 52.2349 166.306 48.3047C163.789 44.3745 150.772 43.1654 145.943 42.8521C141.114 42.5388 130.185 42.3923 130.185 42.3923Z" fill="black"/>
<path d="M171.149 51.5879C170.921 53.7709 170.72 49.507 170.342 52.4325C168.097 69.7778 163.622 103.934 163.622 103.934L169.238 103.641L171.149 51.5879Z" fill="black"/>
<path d="M159.941 71.3477L161.565 111.59V71.5759L161.119 71.0344L159.941 71.3477Z" fill="black"/>
<path d="M149.713 73.2277L151.304 116.174L151.004 73.0642L149.713 73.2277Z" fill="black"/>
<path d="M139.234 74.0212L140.675 109.9L140.314 74.0962L139.234 74.0212Z" fill="black"/>
<path d="M100.364 172.549C153.572 181.737 212.181 174.217 211.316 156.174C210.229 133.529 150.101 134.415 150.101 134.415L100.364 172.552V172.549Z" fill="black" stroke="black" stroke-width="1.2" stroke-linecap="round" stroke-linejoin="round"/>
<path d="M98.8058 107.391C100.216 107.146 101.245 106.287 101.103 105.472C100.962 104.656 99.7039 104.194 98.2936 104.438C96.8833 104.683 95.8546 105.542 95.9961 106.358C96.1375 107.173 97.3955 107.636 98.8058 107.391Z" fill="#FFB26E" stroke="black" stroke-width="1.2" stroke-linecap="round" stroke-linejoin="round"/>
<path d="M117.406 105.783C118.838 105.783 119.998 105.112 119.998 104.285C119.998 103.457 118.838 102.786 117.406 102.786C115.975 102.786 114.815 103.457 114.815 104.285C114.815 105.112 115.975 105.783 117.406 105.783Z" fill="#FFB26E" stroke="black" stroke-width="1.2" stroke-linecap="round" stroke-linejoin="round"/>
<path d="M57.7589 152.949C58.6273 159.583 72.7338 172.848 116.048 173.387C159.362 173.925 169.388 158.94 169.388 152.949C169.388 135.093 162.597 104.755 116.031 104.727C70.2034 104.7 55.46 135.331 57.7623 152.949H57.7589Z" fill="white"/>
<mask id="mask4_7428_3710" style="mask-type:luminance" maskUnits="userSpaceOnUse" x="57" y="104" width="113" height="70">
<path d="M57.7589 152.949C58.6273 159.583 72.7338 172.848 116.048 173.387C159.362 173.925 169.388 158.94 169.388 152.949C169.388 135.093 162.597 104.755 116.031 104.727C70.2034 104.7 55.46 135.331 57.7623 152.949H57.7589Z" fill="white"/>
</mask>
<g mask="url(#mask4_7428_3710)">
<path d="M87.2456 170.815C107.52 172.974 123.857 170.131 138.604 155.445C153.347 140.76 149.758 124.47 149.758 124.47C149.758 124.47 165.751 141.996 161.861 155.445C157.972 168.894 149.141 172.259 128.101 173.822C107.06 175.386 87.2456 170.815 87.2456 170.815Z" fill="#FFB26E"/>
</g>
<path d="M57.7589 152.949C58.6273 159.583 72.7338 172.848 116.048 173.387C159.362 173.925 169.388 158.94 169.388 152.949C169.388 135.093 162.597 104.755 116.031 104.727C70.2034 104.7 55.46 135.331 57.7623 152.949H57.7589Z" stroke="black" stroke-width="1.2" stroke-linecap="round" stroke-linejoin="round"/>
<path d="M85.5219 139.533C86.0659 138.209 85.8864 136.881 85.1209 136.566C84.3555 136.252 83.2939 137.07 82.7498 138.394C82.2057 139.718 82.3852 141.046 83.1507 141.361C83.9162 141.675 84.9778 140.857 85.5219 139.533Z" fill="#FFB26E" stroke="black" stroke-width="1.2" stroke-linecap="round" stroke-linejoin="round"/>
<path d="M109.059 121.356C109.882 121.269 110.427 120.045 110.276 118.621C110.126 117.198 109.336 116.114 108.513 116.201C107.69 116.289 107.145 117.513 107.296 118.936C107.447 120.36 108.236 121.443 109.059 121.356Z" fill="#FFB26E" stroke="black" stroke-width="1.2" stroke-linecap="round" stroke-linejoin="round"/>
<path d="M132.353 118.839C133.014 118.34 132.849 117.009 131.986 115.868C131.122 114.726 129.888 114.205 129.227 114.704C128.567 115.203 128.732 116.533 129.595 117.675C130.458 118.817 131.693 119.338 132.353 118.839Z" fill="#FFB26E" stroke="black" stroke-width="1.2" stroke-linecap="round" stroke-linejoin="round"/>
<path d="M110.738 150.092C110.931 148.674 110.422 147.434 109.602 147.323C108.782 147.212 107.961 148.271 107.769 149.69C107.576 151.108 108.085 152.348 108.905 152.459C109.725 152.571 110.546 151.511 110.738 150.092Z" fill="#FFB26E" stroke="black" stroke-width="1.2" stroke-linecap="round" stroke-linejoin="round"/>
<path d="M99.4848 137.888C99.677 136.47 99.1681 135.23 98.348 135.119C97.5279 135.008 96.7072 136.067 96.5149 137.486C96.3226 138.904 96.8316 140.144 97.6517 140.255C98.4718 140.366 99.2925 139.307 99.4848 137.888Z" fill="#FFB26E" stroke="black" stroke-width="1.2" stroke-linecap="round" stroke-linejoin="round"/>
<path d="M95.9883 118.912C96.9165 117.823 97.1584 116.504 96.5284 115.968C95.8984 115.431 94.6352 115.879 93.7069 116.969C92.7786 118.058 92.5368 119.377 93.1668 119.913C93.7968 120.45 95.06 120.002 95.9883 118.912Z" fill="#FFB26E" stroke="black" stroke-width="1.2" stroke-linecap="round" stroke-linejoin="round"/>
<path d="M103.585 111.196C104.824 110.481 105.494 109.319 105.08 108.603C104.666 107.886 103.326 107.885 102.086 108.601C100.847 109.317 100.177 110.478 100.591 111.194C101.005 111.911 102.345 111.912 103.585 111.196Z" fill="#FFB26E" stroke="black" stroke-width="1.2" stroke-linecap="round" stroke-linejoin="round"/>
<path d="M121.955 112.58C122.369 111.863 121.699 110.702 120.46 109.987C119.22 109.271 117.88 109.272 117.466 109.988C117.052 110.705 117.722 111.866 118.961 112.582C120.201 113.298 121.541 113.297 121.955 112.58Z" fill="#FFB26E" stroke="black" stroke-width="1.2" stroke-linecap="round" stroke-linejoin="round"/>
<path d="M138.956 108.383C139.214 107.596 138.32 106.598 136.96 106.152C135.599 105.706 134.288 105.983 134.03 106.769C133.772 107.556 134.666 108.554 136.026 109C137.387 109.446 138.698 109.169 138.956 108.383Z" fill="#FFB26E" stroke="black" stroke-width="1.2" stroke-linecap="round" stroke-linejoin="round"/>
<path d="M109.06 168.79C109.883 168.703 110.428 167.478 110.278 166.055C110.127 164.632 109.338 163.548 108.515 163.635C107.692 163.722 107.147 164.947 107.297 166.37C107.448 167.794 108.237 168.877 109.06 168.79Z" fill="#FFB26E" stroke="black" stroke-width="1.2" stroke-linecap="round" stroke-linejoin="round"/>
<path d="M124.874 163.094C125.697 163.007 126.242 161.783 126.091 160.359C125.941 158.936 125.152 157.853 124.329 157.94C123.506 158.027 122.96 159.251 123.111 160.675C123.262 162.098 124.051 163.182 124.874 163.094Z" fill="#FFB26E" stroke="black" stroke-width="1.2" stroke-linecap="round" stroke-linejoin="round"/>
<path d="M138.875 165.782C139.698 165.695 140.244 164.47 140.093 163.047C139.942 161.623 139.153 160.54 138.33 160.627C137.507 160.714 136.962 161.939 137.113 163.362C137.263 164.785 138.052 165.869 138.875 165.782Z" fill="#FFB26E" stroke="black" stroke-width="1.2" stroke-linecap="round" stroke-linejoin="round"/>
<path d="M120.006 145.011C120.821 144.869 121.284 143.611 121.039 142.201C120.795 140.791 119.935 139.762 119.12 139.903C118.305 140.045 117.842 141.303 118.086 142.713C118.331 144.123 119.19 145.152 120.006 145.011Z" fill="#FFB26E" stroke="black" stroke-width="1.2" stroke-linecap="round" stroke-linejoin="round"/>
<path d="M133.002 151.102C133.791 150.853 134.082 149.545 133.65 148.18C133.219 146.815 132.23 145.91 131.441 146.16C130.652 146.409 130.361 147.718 130.793 149.082C131.224 150.447 132.213 151.352 133.002 151.102Z" fill="#FFB26E" stroke="black" stroke-width="1.2" stroke-linecap="round" stroke-linejoin="round"/>
<path d="M124.97 127.787C125.711 127.42 125.798 126.082 125.164 124.799C124.529 123.516 123.413 122.774 122.671 123.141C121.929 123.507 121.843 124.845 122.477 126.128C123.112 127.411 124.228 128.154 124.97 127.787Z" fill="#FFB26E" stroke="black" stroke-width="1.2" stroke-linecap="round" stroke-linejoin="round"/>
<path d="M137.43 138.222C138.195 137.905 138.37 136.576 137.822 135.254C137.273 133.932 136.209 133.117 135.445 133.434C134.68 133.751 134.505 135.079 135.053 136.402C135.601 137.724 136.666 138.539 137.43 138.222Z" fill="#FFB26E" stroke="black" stroke-width="1.2" stroke-linecap="round" stroke-linejoin="round"/>
<path d="M61.3344 137.863C61.8784 136.539 61.6989 135.211 60.9334 134.896C60.168 134.582 59.1064 135.4 58.5623 136.724C58.0182 138.048 58.1977 139.376 58.9632 139.691C59.7287 140.006 60.7903 139.187 61.3344 137.863Z" fill="#FFB26E" stroke="black" stroke-width="1.2" stroke-linecap="round" stroke-linejoin="round"/>
<path d="M82.7979 159.128C83.235 157.765 82.9505 156.456 82.1624 156.203C81.3743 155.95 80.3811 156.85 79.944 158.213C79.5069 159.576 79.7915 160.886 80.5795 161.139C81.3676 161.391 82.3608 160.491 82.7979 159.128Z" fill="#FFB26E" stroke="black" stroke-width="1.2" stroke-linecap="round" stroke-linejoin="round"/>
<path d="M97.6066 156.415C97.7989 154.997 97.2899 153.757 96.4698 153.646C95.6497 153.534 94.829 154.594 94.6367 156.013C94.4444 157.431 94.9534 158.671 95.7735 158.782C96.5936 158.893 97.4143 157.834 97.6066 156.415Z" fill="#FFB26E" stroke="black" stroke-width="1.2" stroke-linecap="round" stroke-linejoin="round"/>
<path d="M70.4725 146.5C70.9095 145.137 70.625 143.828 69.8369 143.575C69.0489 143.322 68.0557 144.222 67.6186 145.585C67.1815 146.948 67.466 148.258 68.2541 148.511C69.0422 148.764 70.0354 147.863 70.4725 146.5Z" fill="#FFB26E" stroke="black" stroke-width="1.2" stroke-linecap="round" stroke-linejoin="round"/>
<path d="M79.3689 123.989C80.2972 122.899 80.539 121.581 79.909 121.044C79.279 120.507 78.0158 120.956 77.0875 122.045C76.1593 123.135 75.9174 124.453 76.5474 124.99C77.1774 125.527 78.4406 125.078 79.3689 123.989Z" fill="#FFB26E" stroke="black" stroke-width="1.2" stroke-linecap="round" stroke-linejoin="round"/>
<path d="M68.4663 124.526C69.3946 123.437 69.6364 122.118 69.0064 121.582C68.3764 121.045 67.1132 121.493 66.1849 122.583C65.2567 123.672 65.0148 124.991 65.6448 125.527C66.2748 126.064 67.538 125.616 68.4663 124.526Z" fill="#FFB26E" stroke="black" stroke-width="1.2" stroke-linecap="round" stroke-linejoin="round"/>
<path d="M83.7098 112.929C84.9928 112.294 85.7354 111.178 85.3684 110.436C85.0015 109.694 83.6639 109.608 82.3809 110.242C81.0979 110.877 80.3553 111.993 80.7223 112.735C81.0892 113.476 82.4268 113.563 83.7098 112.929Z" fill="#FFB26E" stroke="black" stroke-width="1.2" stroke-linecap="round" stroke-linejoin="round"/>
<path d="M198.265 217.586C251.895 223.88 302.272 212.052 300.43 194.083C298.117 171.53 238.129 175.672 238.129 175.672L198.269 217.586H198.265Z" fill="black" stroke="black" stroke-width="1.2" stroke-linecap="round" stroke-linejoin="round"/>
<path d="M159.079 95.0483C160.23 89.2892 164.838 90.3723 164.838 90.3723C164.838 90.3723 157.696 85.0117 165.529 82.6072C173.362 80.2028 170.195 90.3041 172.702 90.3723C175.205 90.4404 170.849 83.4314 180.164 82.6072C185.286 82.1543 187.019 83.0363 186.199 85.5702C185.378 88.104 187.997 84.6949 190.016 84.0717C192.039 83.4484 201.252 85.5702 201.18 91.6664C201.126 96.3357 184.254 109.897 184.254 109.897L161.824 106.025L159.079 95.0415V95.0483Z" fill="#FFB26E" stroke="white" stroke-width="1.2" stroke-linecap="round" stroke-linejoin="round"/>
<path d="M157.744 176.942C157.744 176.942 156.351 185.991 156.821 191.658C157.226 196.549 163.326 218.386 214.997 218.502C268.597 218.625 274.148 203.732 275.531 199.842C277.056 195.548 276.164 181.71 276.164 181.71L157.747 176.946L157.744 176.942Z" fill="white"/>
<mask id="mask5_7428_3710" style="mask-type:luminance" maskUnits="userSpaceOnUse" x="156" y="176" width="121" height="43">
<path d="M157.744 176.942C157.744 176.942 156.351 185.991 156.821 191.658C157.226 196.549 163.326 218.386 214.997 218.502C268.597 218.625 274.148 203.732 275.531 199.842C277.056 195.548 276.164 181.71 276.164 181.71L157.747 176.946L157.744 176.942Z" fill="white"/>
</mask>
<g mask="url(#mask5_7428_3710)">
<path d="M157.08 182.442C157.08 182.442 169.364 190.97 173.635 194.543C177.902 198.115 180.286 200.074 180.286 200.074C180.286 200.074 176.349 194.308 181.042 191.662C185.736 189.015 194.206 194.151 194.233 197.632C194.26 201.113 192.07 204.566 192.07 204.566L207.505 212.859C207.505 212.859 208.074 208.547 211.534 203.503C214.994 198.459 217.003 197.652 217.003 197.652C217.003 197.652 220.651 198.909 222.201 198.231C224.479 197.233 226.243 199.536 230.412 197.652C231.559 197.135 232.854 196.549 232.854 196.549L236.304 199.035C236.304 199.035 238.34 195.766 242.594 197.724C246.848 199.682 243.101 205.833 243.101 205.833L248.568 209.518C248.568 209.518 244.069 213.203 238.691 215.277C233.313 217.351 228.487 218.182 228.487 218.182C228.487 218.182 251.888 217.079 263.968 211.108C276.048 205.141 276.205 199.038 276.314 194.543C276.423 190.047 276.423 181.193 276.423 181.193L268.6 180.883H157.366L157.083 182.442H157.08Z" fill="#FFB26E"/>
</g>
<path d="M157.744 176.942C157.744 176.942 156.351 185.991 156.821 191.658C157.226 196.549 163.326 218.386 214.997 218.502C268.597 218.625 274.148 203.732 275.531 199.842C277.056 195.548 276.164 181.71 276.164 181.71L157.747 176.946L157.744 176.942Z" stroke="black" stroke-width="1.2" stroke-linecap="round" stroke-linejoin="round"/>
<path d="M161.65 157.965C154.321 161.276 158.881 165.495 158.881 166.48C158.881 167.464 156.511 167.924 156.852 172.16C157.022 174.282 161.238 174.681 160.588 177.259C159.695 180.79 164.654 182.296 164.654 182.296C164.654 182.296 164.91 184.492 169.017 186.693C173.124 188.889 175.433 187.915 175.433 187.915C175.433 187.915 175.689 190.602 178.897 191.457C182.105 192.312 183.794 191.437 183.794 191.437C183.794 191.437 183.552 193.048 188.283 193.289C193.01 193.535 194.233 191.662 194.233 191.662C194.233 191.662 193.398 194.386 198.786 194.999C204.174 195.609 205.771 194.999 205.771 194.999C205.771 194.999 206.871 196.096 210.335 195.854C213.799 195.609 213.543 194.39 213.543 194.39C213.543 194.39 214.49 195.98 218.842 195.953C222.943 195.929 223.178 194.43 223.178 194.43C223.178 194.43 223.413 195.854 227.268 196.464C231.123 197.073 233.882 194.267 233.882 194.267C233.882 194.267 235.616 195.731 240.234 195.367C244.852 194.999 245.237 193.412 245.237 193.412C245.237 193.412 247.416 193.78 249.344 192.925C251.272 192.07 252.62 190.446 252.62 190.446C252.62 190.446 254.991 191.461 258.454 190.728C261.918 189.996 262.177 188.041 262.177 188.041C262.177 188.041 265 188.409 268.079 186.699C271.158 184.99 271.423 182.452 271.423 182.452C271.423 182.452 271.287 183.28 273.981 180.593C276.675 177.906 274.495 173.264 274.495 173.264C274.495 173.264 277.165 170.406 277.189 168.744C277.244 164.859 272.067 162.822 272.057 161.283C271.76 121.606 163.006 114.777 161.654 157.972L161.65 157.965Z" fill="black" stroke="#FFB26E" stroke-width="1.2" stroke-linecap="round" stroke-linejoin="round"/>
<path d="M262.63 162.488C264.469 164.109 263.256 168.322 259.575 169.354" stroke="#FFB26E" stroke-width="1.2" stroke-linecap="round" stroke-linejoin="round"/>
<path d="M192.768 173.867C192.768 173.867 194.226 175.416 197.322 175.951C200.131 176.438 202.175 175.454 202.175 175.454C202.175 175.454 203.438 178.161 207.181 177.456C208.68 177.177 210.114 175.685 210.114 175.685C210.114 175.685 210.815 178.223 215.733 178.12C220.651 178.018 221.472 176.326 221.472 176.326C220.903 176.806 224.758 178.604 227.306 177.719C228.644 177.252 238.691 170.808 238.691 170.808" stroke="#FFB26E" stroke-width="1.2" stroke-linecap="round" stroke-linejoin="round"/>
<path d="M167.944 177.497C166.721 176.82 166.071 178.284 166.803 178.934" stroke="#FFB26E" stroke-width="1.2" stroke-linecap="round" stroke-linejoin="round"/>
<path d="M180.739 186.509C181.635 188.137 183.28 186.509 183.28 186.509" stroke="#FFB26E" stroke-width="1.2" stroke-linecap="round" stroke-linejoin="round"/>
<path d="M263.968 179.418C264.864 181.046 266.509 179.418 266.509 179.418" stroke="#FFB26E" stroke-width="1.2" stroke-linecap="round" stroke-linejoin="round"/>
<path d="M178.798 179.725C178.553 180.457 180.225 181.635 180.283 180.842C180.344 180.048 178.798 179.725 178.798 179.725Z" stroke="#FFB26E" stroke-width="1.2" stroke-linecap="round" stroke-linejoin="round"/>
<path d="M192.768 181.196C193.378 180.096 195.578 180.219 195.701 181.196" stroke="#FFB26E" stroke-width="1.2" stroke-linecap="round" stroke-linejoin="round"/>
<path d="M172.426 182.909C172.426 184.864 173.393 184.864 173.393 184.864" stroke="#FFB26E" stroke-width="1.2" stroke-linecap="round" stroke-linejoin="round"/>
<path d="M199.12 187.667C198.633 185.347 201.317 185.347 201.317 185.347" stroke="#FFB26E" stroke-width="1.2" stroke-linecap="round" stroke-linejoin="round"/>
<path d="M246.981 184.864C246.494 182.545 248.568 180.883 248.568 180.883" stroke="#FFB26E" stroke-width="1.2" stroke-linecap="round" stroke-linejoin="round"/>
<path d="M206.813 187.667C205.958 187.667 206.813 189.622 206.813 188.644V187.667Z" stroke="#FFB26E" stroke-width="1.2" stroke-linecap="round" stroke-linejoin="round"/>
<path d="M256.404 184.721C255.549 184.721 256.404 186.676 256.404 185.698V184.721Z" stroke="#FFB26E" stroke-width="1.2" stroke-linecap="round" stroke-linejoin="round"/>
<path d="M268.924 169.116C270.538 169.116 268.924 171.071 268.924 170.093V169.116Z" stroke="#FFB26E" stroke-width="1.2" stroke-linecap="round" stroke-linejoin="round"/>
<path d="M210.192 181.765C211.333 181.356 212.879 183.311 212.879 183.311" stroke="#FFB26E" stroke-width="1.2" stroke-linecap="round" stroke-linejoin="round"/>
<path d="M222.204 182.977C222.204 182.092 223.427 181.806 224.159 182.252" stroke="#FFB26E" stroke-width="1.2" stroke-linecap="round" stroke-linejoin="round"/>
<path d="M256.022 177.787C256.022 176.901 257.245 176.615 257.977 177.061" stroke="#FFB26E" stroke-width="1.2" stroke-linecap="round" stroke-linejoin="round"/>
<path d="M241.616 189.547C241.616 188.661 242.839 188.375 243.571 188.821" stroke="#FFB26E" stroke-width="1.2" stroke-linecap="round" stroke-linejoin="round"/>
<path d="M217.201 189.223C217.201 188.338 219.718 187.667 220.487 188.757" stroke="#FFB26E" stroke-width="1.2" stroke-linecap="round" stroke-linejoin="round"/>
<path d="M231.501 184.438C232.111 185.048 234.434 184.741 234.189 183.886" stroke="#FFB26E" stroke-width="1.2" stroke-linecap="round" stroke-linejoin="round"/>
<path d="M229.206 190.439C228.838 191.219 229.206 192.135 229.816 191.372C230.425 190.609 229.206 190.439 229.206 190.439Z" stroke="#FFB26E" stroke-width="1.2" stroke-linecap="round" stroke-linejoin="round"/>
<path d="M163.128 155.336L137.316 169.926L142.078 172.951C142.078 172.951 146.686 169.501 150.834 172.154C154.686 174.619 152.588 178.131 152.588 178.131L174.446 190.742C174.446 190.742 178.144 176.319 188.474 182.446C198.803 188.573 190.701 195.684 190.701 195.684L204.869 203.507L214.994 192.99C214.994 192.99 209.579 191.052 213.727 185.977C216.782 182.235 222.476 186.512 222.476 186.512C222.476 186.512 230.095 178.904 235.561 173.608L163.125 155.34L163.128 155.336ZM166.602 176.452C164.024 176.452 161.933 174.895 161.933 172.974C161.933 171.054 164.024 169.497 166.602 169.497C169.18 169.497 171.271 171.054 171.271 172.974C171.271 174.895 169.18 176.452 166.602 176.452ZM205.581 182.442C201.541 182.442 198.269 179.98 198.269 176.942C198.269 173.904 201.541 171.442 205.581 171.442C209.62 171.442 212.893 173.904 212.893 176.942C212.893 179.98 209.62 182.442 205.581 182.442Z" fill="white" stroke="#FFB26E" stroke-width="1.2" stroke-linecap="round" stroke-linejoin="round"/>
<path d="M166.496 165.277C165.424 170.584 160.124 170.059 157.975 168.894C155.918 167.781 156.708 165.744 156.708 165.744C154.546 165.672 155.288 166.885 153.446 168.581C151.603 170.277 143.31 168.881 144.077 165.277C144.843 161.674 146.226 161.62 146.226 161.187C146.226 160.755 141.979 159.879 144.026 157.707C146.072 155.534 145.149 154.41 144.383 154.049C143.617 153.691 143 158.108 140.388 156.208C137.776 154.304 135.167 151.454 137.623 147.966C140.082 144.475 143.613 145.551 144.073 145.092C144.533 144.632 142.691 143.096 143.613 139.101C144.536 135.106 150.37 134.067 150.37 134.067C150.37 134.067 141.308 134.299 140.616 130.9C139.925 127.505 141.614 126.197 143.075 127.12C144.533 128.043 147.758 125.89 144.765 123.741C141.771 121.592 137.115 124.586 136.639 121.82C136.162 119.055 134.319 113.374 137.929 112.066C141.539 110.762 142.922 112.605 143.92 111.144C144.918 109.682 140.463 106.536 142.077 103.31C143.692 100.085 146.301 101.049 146.301 101.049C146.301 101.049 141.308 94.1694 147.605 90.716C153.902 87.2592 160.278 92.7901 160.969 95.937C161.66 99.0873 161.194 99.9319 162.577 99.8536C163.959 99.7753 161.504 95.7838 165.192 95.937C168.88 96.0903 174.101 96.86 174.793 104.693C175.484 112.526 166.496 165.277 166.496 165.277Z" fill="#FFB26E" stroke="white" stroke-width="1.2" stroke-linecap="round" stroke-linejoin="round"/>
<path d="M157.975 152.949C151.178 155.149 157.492 162.801 155.172 166.211" stroke="white" stroke-width="1.2" stroke-linecap="round" stroke-linejoin="round"/>
<path d="M146.301 101.049C148.18 102.388 150.718 102.313 150.718 102.313" stroke="white" stroke-width="1.2" stroke-linecap="round" stroke-linejoin="round"/>
<path d="M294.824 168.581L297.014 166.211L277.189 152.949L229.526 174.473L229.989 179.421L242.597 184.326C242.597 184.326 248.52 179.636 251.513 184.326C254.507 189.015 251.513 192.932 251.513 192.932C251.513 192.932 253.588 195.466 254.395 198.691C255.202 201.916 255.457 203.067 255.457 203.067L269.288 192.353C269.288 192.353 261.962 186.962 266.703 182.977C271.444 178.992 274.553 186.509 274.553 186.509L292.178 173.822C292.178 173.822 283.939 174.214 284.835 169.116C285.727 164.017 294.827 168.581 294.827 168.581H294.824ZM258.236 181.829C254.861 181.829 252.123 179.639 252.123 176.939C252.123 174.238 254.861 172.048 258.236 172.048C261.611 172.048 264.35 174.238 264.35 176.939C264.35 179.639 261.611 181.829 258.236 181.829ZM278.044 166.544C275.561 166.544 273.552 164.702 273.552 162.427C273.552 160.152 275.565 158.309 278.044 158.309C280.523 158.309 282.536 160.152 282.536 162.427C282.536 164.702 280.523 166.544 278.044 166.544Z" fill="white" stroke="#FFB26E" stroke-width="1.2" stroke-linecap="round" stroke-linejoin="round"/>
<path d="M289.061 102.312C291.37 104.846 289.065 106.842 291.524 106.842C293.983 106.842 294.058 100.47 297.014 104.577C299.97 108.685 300.276 114.829 295.209 113.909C290.141 112.989 286.636 115.946 286.946 116.811C287.253 117.672 290.904 114.897 294.228 116.811C297.221 118.537 294.228 121.974 294.228 121.974C294.228 121.974 305.041 117.134 305.654 122.665C306.267 128.196 298.744 128.632 299.05 129.643C299.357 130.655 306.73 131.612 304.118 136.124C301.506 140.637 296.591 139.203 295.978 140.457C295.365 141.71 299.357 145.436 294.749 147.261C290.141 149.087 289.528 144.056 287.839 145.725C286.149 147.394 294.378 150.449 290.911 155.128C287.444 159.811 284.396 156.623 284.835 158.316C285.274 160.009 285.87 170.185 278.047 168.584C270.224 166.984 274.638 176.145 269.288 175.655C263.937 175.164 264.356 168.026 264.356 168.026L261.533 117.917L289.068 102.316L289.061 102.312Z" fill="#FFB26E" stroke="white" stroke-width="1.2" stroke-linecap="round" stroke-linejoin="round"/>
<path d="M299.612 129.085C293.891 132.245 283.674 129.569 286.947 130.897C290.219 132.222 292.082 137.981 286.947 141.553C281.811 145.126 279.614 139.646 277.428 140.453C275.238 141.26 284.191 144.649 282.54 147.653C280.888 150.653 278.47 152.843 275.36 151.232C272.251 149.621 281.579 154.342 279.621 158.722C277.663 163.098 269.101 160.969 269.101 160.969" stroke="white" stroke-width="1.2" stroke-linecap="round" stroke-linejoin="round"/>
<path d="M161.933 136.656C154.604 139.966 158.885 148.726 158.885 149.71C158.885 150.694 156.514 151.154 156.855 155.391C157.025 157.512 161.242 157.911 160.591 160.489C159.699 164.021 164.658 165.526 164.658 165.526C164.658 165.526 164.913 167.723 169.02 169.923C173.128 172.119 175.437 171.145 175.437 171.145C175.437 171.145 175.692 173.833 178.9 174.687C182.108 175.542 184.288 174.687 184.288 174.687C184.288 174.687 183.556 176.274 188.286 176.52C193.017 176.765 193.013 175.178 193.013 175.178C193.013 175.178 193.398 177.62 198.786 178.233C204.174 178.842 205.771 178.233 205.771 178.233C205.771 178.233 206.871 179.329 210.335 179.088C213.799 178.846 213.543 177.623 213.543 177.623C213.543 177.623 215.294 179.636 219.616 179.118C223.937 178.601 224.067 177.501 224.067 177.501C224.067 177.501 223.416 179.088 227.268 179.697C231.123 180.307 233.882 177.501 233.882 177.501C233.882 177.501 235.616 178.965 240.234 178.601C244.852 178.233 245.237 176.646 245.237 176.646C245.237 176.646 247.416 177.014 249.344 176.159C251.268 175.304 251.51 173.962 251.51 173.962C251.51 173.962 254.991 174.694 258.454 173.962C261.918 173.23 262.177 171.275 262.177 171.275C262.177 171.275 265 171.643 268.079 169.933C271.158 168.223 270.647 166.636 270.647 166.636C270.647 166.636 271.287 166.514 273.984 163.827C276.678 161.139 274.499 156.497 274.499 156.497C274.499 156.497 276.535 153.504 277.193 151.978C278.664 148.562 277.751 145.306 277.738 143.767C277.441 104.09 163.288 93.4713 161.936 136.663L161.933 136.656Z" fill="black" stroke="#FFB26E" stroke-width="1.2" stroke-linecap="round" stroke-linejoin="round"/>
<path d="M262.63 145.722C264.469 147.343 263.256 151.556 259.575 152.588" stroke="#FFB26E" stroke-width="1.2" stroke-linecap="round" stroke-linejoin="round"/>
<path d="M192.768 157.1C192.768 157.1 194.226 158.65 197.322 159.185C200.131 159.672 202.175 158.687 202.175 158.687C202.175 158.687 203.438 161.395 207.181 160.69C208.68 160.411 210.114 158.919 210.114 158.919C210.114 158.919 210.815 161.456 215.733 161.354C220.651 161.252 221.472 159.559 221.472 159.559C220.903 160.039 224.758 161.838 227.306 160.952C228.644 160.486 238.691 154.042 238.691 154.042" stroke="#FFB26E" stroke-width="1.2" stroke-linecap="round" stroke-linejoin="round"/>
<path d="M173.635 161.361C172.412 160.683 171.762 162.148 172.494 162.798" stroke="#FFB26E" stroke-width="1.2" stroke-linecap="round" stroke-linejoin="round"/>
<path d="M185.848 166.544C186.744 168.172 188.389 166.544 188.389 166.544" stroke="#FFB26E" stroke-width="1.2" stroke-linecap="round" stroke-linejoin="round"/>
<path d="M268.597 152.584C269.492 154.212 271.137 152.584 271.137 152.584" stroke="#FFB26E" stroke-width="1.2" stroke-linecap="round" stroke-linejoin="round"/>
<path d="M163.619 154.045C164.351 154.737 163.619 156.205 163.619 156.205" stroke="#FFB26E" stroke-width="1.2" stroke-linecap="round" stroke-linejoin="round"/>
<path d="M180.31 160.275C180.065 161.007 181.737 162.185 181.795 161.392C181.856 160.598 180.31 160.275 180.31 160.275Z" stroke="#FFB26E" stroke-width="1.2" stroke-linecap="round" stroke-linejoin="round"/>
<path d="M192.768 164.426C193.378 163.326 195.578 163.449 195.701 164.426" stroke="#FFB26E" stroke-width="1.2" stroke-linecap="round" stroke-linejoin="round"/>
<path d="M181.042 169.923C181.042 171.878 182.01 171.878 182.01 171.878" stroke="#FFB26E" stroke-width="1.2" stroke-linecap="round" stroke-linejoin="round"/>
<path d="M199.12 170.9C198.633 168.581 201.317 168.581 201.317 168.581" stroke="#FFB26E" stroke-width="1.2" stroke-linecap="round" stroke-linejoin="round"/>
<path d="M246.371 164.808C245.884 162.488 248.568 162.488 248.568 162.488" stroke="#FFB26E" stroke-width="1.2" stroke-linecap="round" stroke-linejoin="round"/>
<path d="M206.813 170.9C205.958 170.9 206.813 172.855 206.813 171.878V170.9Z" stroke="#FFB26E" stroke-width="1.2" stroke-linecap="round" stroke-linejoin="round"/>
<path d="M255.832 158.313C254.977 158.313 255.832 160.268 255.832 159.29V158.313Z" stroke="#FFB26E" stroke-width="1.2" stroke-linecap="round" stroke-linejoin="round"/>
<path d="M266.7 160.339C265.845 160.339 266.7 162.294 266.7 161.317V160.339Z" stroke="#FFB26E" stroke-width="1.2" stroke-linecap="round" stroke-linejoin="round"/>
<path d="M210.192 164.998C211.333 164.59 212.879 166.545 212.879 166.545" stroke="#FFB26E" stroke-width="1.2" stroke-linecap="round" stroke-linejoin="round"/>
<path d="M214.997 171.878C215.079 173.465 217.007 173.383 217.007 173.383" stroke="#FFB26E" stroke-width="1.2" stroke-linecap="round" stroke-linejoin="round"/>
<path d="M222.204 166.211C222.204 165.325 223.427 165.039 224.159 165.485" stroke="#FFB26E" stroke-width="1.2" stroke-linecap="round" stroke-linejoin="round"/>
<path d="M254.858 168.023C254.858 167.137 256.081 166.851 256.813 167.297" stroke="#FFB26E" stroke-width="1.2" stroke-linecap="round" stroke-linejoin="round"/>
<path d="M241.616 172.78C241.616 171.895 242.839 171.609 243.571 172.055" stroke="#FFB26E" stroke-width="1.2" stroke-linecap="round" stroke-linejoin="round"/>
<path d="M227.708 173.502C228.317 174.112 230.64 173.806 230.395 172.951" stroke="#FFB26E" stroke-width="1.2" stroke-linecap="round" stroke-linejoin="round"/>
<path d="M237.346 166.337C236.978 167.117 237.346 168.033 237.955 167.27C238.565 166.507 237.346 166.337 237.346 166.337Z" stroke="#FFB26E" stroke-width="1.2" stroke-linecap="round" stroke-linejoin="round"/>
<path d="M254.129 92.3951C254.129 92.3951 253.06 85.6449 258.917 83.7173C264.775 81.7931 266.318 87.6782 267.159 87.6134C268 87.5453 267.057 82.7978 274.175 82.2358C281.296 81.6739 284.712 88.1618 284.828 89.616C284.944 91.0703 286.17 86.2171 291.674 90.5594C297.177 94.9017 292.573 100.954 289.058 102.309C285.543 103.665 291.197 108.477 280.186 110.238C278.688 110.476 274.577 116.221 268.532 108.92C262.487 101.618 254.129 92.3951 254.129 92.3951Z" fill="#FFB26E" stroke="white" stroke-width="1.2" stroke-linecap="round" stroke-linejoin="round"/>
<path d="M267.159 87.6135C267.159 87.6135 276.164 89.4662 274.611 94.2002C273.058 98.9341 270.272 98.7707 270.272 98.7707C270.272 98.7707 277.288 98.832 277.417 102.442C277.547 106.052 273.548 107.326 273.548 107.326" stroke="white" stroke-width="1.2" stroke-linecap="round" stroke-linejoin="round"/>
<path d="M283.074 73.3028L220.869 74.3381V34.0212L283.074 35.0566L268.273 54.1797L283.074 73.3028Z" fill="white" stroke="#FFB26E" stroke-width="1.2" stroke-linecap="round" stroke-linejoin="round"/>
<path d="M245.564 46.8879C245.751 46.6836 245.918 46.4963 246.092 46.3158C247.086 45.3043 248.21 44.4767 249.552 43.9828C251.704 43.1859 253.714 43.5299 255.559 44.8411C257.324 46.0944 258.342 47.8245 258.604 49.9701C258.771 51.3358 258.57 52.6742 258.151 53.9854C257.647 55.5725 256.769 56.945 255.737 58.229C254.395 59.9012 252.842 61.3622 251.173 62.7041C249.446 64.0902 247.617 65.3231 245.714 66.4572C245.605 66.5219 245.53 66.5219 245.421 66.4572C243.054 65.0404 240.782 63.4908 238.711 61.6585C237.087 60.2247 235.602 58.6649 234.393 56.8599C233.368 55.3307 232.714 53.6619 232.527 51.8262C232.275 49.3468 232.976 47.191 234.805 45.4575C235.926 44.3949 237.254 43.7376 238.803 43.581C239.948 43.4686 241.038 43.6968 242.076 44.177C243.36 44.7662 244.443 45.6278 245.38 46.6768C245.438 46.7415 245.492 46.8028 245.564 46.8845V46.8879Z" fill="#FFB26E"/>
<path d="M289.051 132.068C289.021 131.135 288.895 130.212 288.673 129.3L286.143 128.683L274.727 125.894C273.368 123.827 271.369 121.865 268.838 120.053L272.55 113.242C265.777 109.863 257.177 107.142 247.29 105.368L233.099 108.91C230.871 108.692 228.589 108.521 226.246 108.412C223.546 108.286 220.872 108.252 218.226 108.283L206.36 103.644C195.714 104.56 185.797 106.512 177.265 109.247L177.047 116.188C173.56 117.754 170.515 119.505 168.019 121.412L152.472 123.578C150.765 125.611 149.522 127.75 148.848 129.964C148.102 132.375 148.065 134.749 148.63 137.051L162.58 140.457C163.183 141.369 163.908 142.265 164.753 143.137C165.809 144.23 167.055 145.289 168.465 146.294L164.753 153.109C171.534 156.487 180.126 159.205 190.013 160.983L204.205 157.441C206.439 157.659 208.721 157.829 211.053 157.938C213.754 158.064 216.428 158.098 219.077 158.064L230.946 162.71C241.582 161.793 251.503 159.849 260.038 157.1L260.256 150.16C263.75 148.6 266.781 146.846 269.281 144.939L284.832 142.766C286.531 140.733 287.777 138.597 288.459 136.383C288.867 135.045 289.065 133.72 289.055 132.409C289.055 132.297 289.048 132.181 289.048 132.068H289.051ZM246.606 133.489C246.418 134.251 246.071 134.99 245.574 135.702C241.708 141.254 229.621 141.083 215.644 140.457C201.586 139.823 190.374 138.907 189.41 133.097C189.301 132.382 189.328 131.656 189.509 130.924C191.188 124.194 205.328 119.314 221.097 120.022C236.865 120.727 248.295 126.762 246.606 133.489Z" fill="#FFB26E" stroke="black" stroke-width="1.2" stroke-linecap="round" stroke-linejoin="round"/>
<path d="M192.571 126.575C192.571 126.575 175.249 109.604 215.801 105.388C256.353 101.175 245.059 125.761 245.059 125.761L243.748 126.718C243.748 126.718 237.301 119.508 218.648 119.954C198.984 120.424 192.567 126.571 192.567 126.571L192.571 126.575Z" fill="black"/>
<path d="M289.058 132.412C289.068 133.724 288.871 135.052 288.462 136.387C287.777 138.601 286.534 140.736 284.835 142.769V128.373L288.99 119.399L289.055 132.068C289.055 132.181 289.061 132.297 289.061 132.409L289.058 132.412Z" fill="#FFB26E" stroke="black" stroke-width="1.2" stroke-linecap="round" stroke-linejoin="round"/>
<path d="M190.016 146.587V160.983C180.129 159.205 171.533 156.487 164.753 153.109V138.709L190.016 146.583V146.587Z" fill="white" stroke="black" stroke-width="1.2" stroke-linecap="round" stroke-linejoin="round"/>
<path d="M189.512 130.924C191.191 124.194 205.332 119.314 221.1 120.022C236.869 120.727 248.299 126.762 246.609 133.489" stroke="#FFB26E" stroke-width="1.2" stroke-linecap="round" stroke-linejoin="round"/>
<path d="M148.634 122.652V137.048L162.58 140.457V126.057L148.634 122.652Z" fill="white" stroke="black" stroke-width="1.2" stroke-linecap="round" stroke-linejoin="round"/>
<path d="M204.205 143.045L204.208 157.444" stroke="black" stroke-width="1.2" stroke-linecap="round" stroke-linejoin="round"/>
<path d="M219.077 158.064V143.668L230.95 148.314V162.71L219.077 158.064Z" fill="white" stroke="black" stroke-width="1.2" stroke-linecap="round" stroke-linejoin="round"/>
<path d="M260.038 142.704V157.1" stroke="black" stroke-width="1.2" stroke-linecap="round" stroke-linejoin="round"/>
<path d="M269.284 144.938V130.542L284.832 128.373V142.769L269.284 144.938Z" stroke="black" stroke-width="1.2" stroke-linecap="round" stroke-linejoin="round"/>
<path d="M148.327 135.331L148.286 120.506" stroke="black" stroke-width="1.2" stroke-linecap="round" stroke-linejoin="round"/>
<path d="M272.554 111.93V98.8457L265.64 104.904L272.554 111.93Z" fill="#FFB26E" stroke="black" stroke-width="1.2" stroke-linecap="round" stroke-linejoin="round"/>
<path d="M269.284 130.543L284.832 128.373C286.534 126.34 287.781 124.205 288.462 121.987C289.201 119.576 289.235 117.206 288.677 114.904L274.73 111.498C273.371 109.427 271.372 107.469 268.838 105.657L272.554 98.8456C265.777 95.4637 257.177 92.7425 247.294 90.9716L233.099 94.5101C230.871 94.2921 228.589 94.1184 226.246 94.0129C223.546 93.8903 220.872 93.8528 218.226 93.8834L206.36 89.2415C195.718 90.1576 185.8 92.1057 177.265 94.8473L177.047 101.788C173.557 103.351 170.519 105.102 168.019 107.009L152.472 109.179C150.769 111.212 149.522 113.347 148.848 115.564C148.102 117.972 148.068 120.346 148.633 122.648L162.58 126.054C163.942 128.121 165.938 130.083 168.465 131.895L164.756 138.709C171.534 142.091 180.133 144.806 190.016 146.584L204.205 143.042C206.439 143.26 208.717 143.433 211.057 143.539C213.758 143.661 216.431 143.699 219.077 143.668L230.95 148.31C241.589 147.391 251.51 145.446 260.038 142.704L260.256 135.764C263.75 134.204 266.785 132.45 269.284 130.543ZM215.028 129.998C200.969 129.368 190.374 124.508 189.414 118.697C189.301 117.986 189.328 117.26 189.509 116.525C191.191 109.795 205.332 104.911 221.097 105.623C236.865 106.328 248.295 112.359 246.609 119.093C246.425 119.855 246.071 120.594 245.577 121.303C241.708 126.858 229.005 130.621 215.028 129.998Z" fill="white" stroke="black" stroke-width="1.2" stroke-linecap="round" stroke-linejoin="round"/>
<path d="M221.676 31.5485V129.967C219.98 130.059 218.24 130.093 216.476 130.045V31.5485C216.476 30.1181 217.64 28.95 219.078 28.95C219.8 28.95 220.447 29.2394 220.913 29.7128C221.387 30.1828 221.676 30.8333 221.676 31.5485Z" fill="#FFB26E"/>
<mask id="mask6_7428_3710" style="mask-type:luminance" maskUnits="userSpaceOnUse" x="216" y="28" width="6" height="103">
<path d="M221.676 31.5485V129.967C219.98 130.059 218.24 130.093 216.476 130.045V31.5485C216.476 30.1181 217.64 28.95 219.078 28.95C219.8 28.95 220.447 29.2394 220.913 29.7128C221.387 30.1828 221.676 30.8333 221.676 31.5485Z" fill="white"/>
</mask>
<g mask="url(#mask6_7428_3710)">
<path d="M220.913 29.713C217.797 34.1745 216.476 113.426 216.476 113.426V31.5487C216.476 31.5487 216.826 29.1034 219.078 28.9501C221.329 28.7969 220.913 29.713 220.913 29.713Z" fill="white"/>
</g>
<path d="M221.676 31.5485V129.967C219.98 130.059 218.24 130.093 216.476 130.045V31.5485C216.476 30.1181 217.64 28.95 219.078 28.95C219.8 28.95 220.447 29.2394 220.913 29.7128C221.387 30.1828 221.676 30.8333 221.676 31.5485Z" stroke="black" stroke-width="1.2" stroke-linecap="round" stroke-linejoin="round"/>
</svg>
